<?plantuml 1.2026.1?><svg xmlns="http://www.w3.org/2000/svg" xmlns:xlink="http://www.w3.org/1999/xlink" contentStyleType="text/css" data-diagram-type="SEQUENCE" height="864px" preserveAspectRatio="none" style="width:766px;height:864px;background:#FFFFFF;" version="1.1" viewBox="0 0 766 864" width="766px" zoomAndPan="magnify"><title>Post-Payment Operations - Cancel or Refund</title><defs/><g><text fill="#000000" font-family="sans-serif" font-size="14" font-weight="bold" lengthAdjust="spacing" textLength="352.7754" x="202.9016" y="27.9951">Post-Payment Operations - Cancel or Refund</text><rect fill="none" height="443.4063" rx="6" ry="6" style="stroke:#000000;stroke-width:1.5;" width="739.5786" x="10" y="135.5938"/><rect fill="none" height="163.2734" rx="6" ry="6" style="stroke:#000000;stroke-width:1.5;" width="719.5786" x="20" y="408.7266"/><g class="participant-lifeline" data-entity-uid="part1" data-qualified-name="Ops" id="part1-lifeline"><g><title>Merchant or Ops</title><rect fill="#000000" fill-opacity="0.00000" height="527.6719" width="8" x="87.1909" y="118.5938"/><line style="stroke:#181818;stroke-width:0.5;stroke-dasharray:5,5;" x1="91" x2="91" y1="118.5938" y2="646.2656"/></g></g><g class="participant-lifeline" data-entity-uid="part2" data-qualified-name="ACQP" id="part2-lifeline"><g><title>Your Backend . ACQP</title><rect fill="#000000" fill-opacity="0.00000" height="527.6719" width="8" x="372.8232" y="118.5938"/><line style="stroke:#181818;stroke-width:0.5;stroke-dasharray:5,5;" x1="376.3286" x2="376.3286" y1="118.5938" y2="646.2656"/></g></g><g class="participant-lifeline" data-entity-uid="part3" data-qualified-name="AP" id="part3-lifeline"><g><title>Alipay. Backend</title><rect fill="#000000" fill-opacity="0.00000" height="527.6719" width="8" x="658.7539" y="118.5938"/><line style="stroke:#181818;stroke-width:0.5;stroke-dasharray:5,5;" x1="661.9292" x2="661.9292" y1="118.5938" y2="646.2656"/></g></g><g class="participant participant-head" data-entity-uid="part1" data-qualified-name="Ops" id="part1-head"><text fill="#000000" font-family="sans-serif" font-size="14" lengthAdjust="spacing" textLength="116.3818" x="30" y="115.292">Merchant or Ops</text><ellipse cx="91.1909" cy="50.7969" fill="#FFF2CC" rx="8" ry="8" style="stroke:#5B6B82;stroke-width:0.5;"/><path d="M91.1909,58.7969 L91.1909,85.7969 M78.1909,66.7969 L104.1909,66.7969 M91.1909,85.7969 L78.1909,100.7969 M91.1909,85.7969 L104.1909,100.7969" fill="none" style="stroke:#5B6B82;stroke-width:0.5;"/></g><g class="participant participant-tail" data-entity-uid="part1" data-qualified-name="Ops" id="part1-tail"><text fill="#000000" font-family="sans-serif" font-size="14" lengthAdjust="spacing" textLength="116.3818" x="30" y="658.2607">Merchant or Ops</text><ellipse cx="91.1909" cy="670.0625" fill="#FFF2CC" rx="8" ry="8" style="stroke:#5B6B82;stroke-width:0.5;"/><path d="M91.1909,678.0625 L91.1909,705.0625 M78.1909,686.0625 L104.1909,686.0625 M91.1909,705.0625 L78.1909,720.0625 M91.1909,705.0625 L104.1909,720.0625" fill="none" style="stroke:#5B6B82;stroke-width:0.5;"/></g><g class="participant participant-head" data-entity-uid="part2" data-qualified-name="ACQP" id="part2-head"><rect fill="#CFE2FF" height="30.2969" rx="6" ry="6" style="stroke:#5B6B82;stroke-width:0.5;" width="162.9893" x="295.3286" y="87.2969"/><text fill="#000000" font-family="sans-serif" font-size="14" lengthAdjust="spacing" textLength="148.9893" x="302.3286" y="107.292">Your Backend / ACQP</text></g><g class="participant participant-tail" data-entity-uid="part2" data-qualified-name="ACQP" id="part2-tail"><rect fill="#CFE2FF" height="30.2969" rx="6" ry="6" style="stroke:#5B6B82;stroke-width:0.5;" width="162.9893" x="295.3286" y="645.2656"/><text fill="#000000" font-family="sans-serif" font-size="14" lengthAdjust="spacing" textLength="148.9893" x="302.3286" y="665.2607">Your Backend / ACQP</text></g><g class="participant participant-head" data-entity-uid="part3" data-qualified-name="AP" id="part3-head"><rect fill="#F4CCCC" height="30.2969" rx="6" ry="6" style="stroke:#5B6B82;stroke-width:0.5;" width="133.6494" x="595.9292" y="87.2969"/><text fill="#000000" font-family="sans-serif" font-size="14" lengthAdjust="spacing" textLength="119.6494" x="602.9292" y="107.292">Alipay+ Backend</text></g><g class="participant participant-tail" data-entity-uid="part3" data-qualified-name="AP" id="part3-tail"><rect fill="#F4CCCC" height="30.2969" rx="6" ry="6" style="stroke:#5B6B82;stroke-width:0.5;" width="133.6494" x="595.9292" y="645.2656"/><text fill="#000000" font-family="sans-serif" font-size="14" lengthAdjust="spacing" textLength="119.6494" x="602.9292" y="665.2607">Alipay+ Backend</text></g><path d="M16,135.5938 L74.4429,135.5938 L74.4429,142.7266 L64.4429,152.7266 L10,152.7266 L10,141.5938 A6,6 0 0 1 16,135.5938" fill="#EEEEEE" style="stroke:#000000;stroke-width:1.5;"/><rect fill="none" height="443.4063" rx="6" ry="6" style="stroke:#000000;stroke-width:1.5;" width="739.5786" x="10" y="135.5938"/><text fill="#000000" font-family="sans-serif" font-size="13" font-weight="bold" lengthAdjust="spacing" textLength="19.4429" x="25" y="148.6606">alt</text><text fill="#000000" font-family="sans-serif" font-size="11" font-weight="bold" lengthAdjust="spacing" textLength="311.7383" x="89.4429" y="147.8042">[Final payment status not obtained before expiry]</text><g class="message" data-entity-1="part1" data-entity-2="part2" id="msg1"><polygon fill="#4A5568" points="364.8232,169.8594,374.8232,173.8594,364.8232,177.8594,368.8232,173.8594" style="stroke:#4A5568;stroke-width:1;"/><line style="stroke:#4A5568;stroke-width:1;" x1="91.1909" x2="370.8232" y1="173.8594" y2="173.8594"/><text fill="#000000" font-family="sans-serif" font-size="13" lengthAdjust="spacing" textLength="24.7939" x="166.5691" y="168.7935">S01</text><text fill="#000000" font-family="sans-serif" font-size="13" lengthAdjust="spacing" textLength="106.082" x="195.363" y="168.7935">Cancel payment</text></g><g class="message" data-entity-1="part2" data-entity-2="part3" id="msg2"><polygon fill="#C0392B" points="650.7539,198.9922,660.7539,202.9922,650.7539,206.9922,654.7539,202.9922" style="stroke:#C0392B;stroke-width:1;"/><line style="stroke:#C0392B;stroke-width:1;" x1="376.8232" x2="656.7539" y1="202.9922" y2="202.9922"/><text fill="#000000" font-family="sans-serif" font-size="13" lengthAdjust="spacing" textLength="24.7939" x="388.8232" y="197.9263">S02</text><text fill="#000000" font-family="sans-serif" font-size="13" lengthAdjust="spacing" textLength="233.1367" x="417.6172" y="197.9263">cancelPayment(paymentRequestId)</text></g><g class="message" data-entity-1="part3" data-entity-2="part2" id="msg3"><polygon fill="#C0392B" points="387.8232,228.125,377.8232,232.125,387.8232,236.125,383.8232,232.125" style="stroke:#C0392B;stroke-width:1;"/><line style="stroke:#C0392B;stroke-width:1;stroke-dasharray:2,2;" x1="381.8232" x2="661.7539" y1="232.125" y2="232.125"/><text fill="#000000" font-family="sans-serif" font-size="13" lengthAdjust="spacing" textLength="24.7939" x="463.7383" y="227.0591">S03</text><text fill="#000000" font-family="sans-serif" font-size="13" lengthAdjust="spacing" textLength="83.3066" x="492.5322" y="227.0591">cancel result</text></g><g class="message" data-entity-1="part2" data-entity-2="part1" id="msg4"><polygon fill="#4A5568" points="102.1909,257.2578,92.1909,261.2578,102.1909,265.2578,98.1909,261.2578" style="stroke:#4A5568;stroke-width:1;"/><line style="stroke:#4A5568;stroke-width:1;" x1="96.1909" x2="375.8232" y1="261.2578" y2="261.2578"/><text fill="#000000" font-family="sans-serif" font-size="13" lengthAdjust="spacing" textLength="24.7939" x="118.8093" y="256.1919">S04</text><text fill="#000000" font-family="sans-serif" font-size="13" lengthAdjust="spacing" textLength="201.6016" x="147.6033" y="256.1919">Close order based on response</text></g><line style="stroke:#000000;stroke-width:1;stroke-dasharray:2,2;" x1="10" x2="749.5786" y1="270.2578" y2="270.2578"/><text fill="#000000" font-family="sans-serif" font-size="11" font-weight="bold" lengthAdjust="spacing" textLength="279.5063" x="15" y="280.4683">[Payment succeeded and reversal is needed]</text><g class="message" data-entity-1="part1" data-entity-2="part2" id="msg5"><polygon fill="#4A5568" points="364.8232,301.1953,374.8232,305.1953,364.8232,309.1953,368.8232,305.1953" style="stroke:#4A5568;stroke-width:1;"/><line style="stroke:#4A5568;stroke-width:1;" x1="91.1909" x2="370.8232" y1="305.1953" y2="305.1953"/><text fill="#000000" font-family="sans-serif" font-size="13" lengthAdjust="spacing" textLength="24.7939" x="165.4202" y="300.1294">S05</text><text fill="#000000" font-family="sans-serif" font-size="13" lengthAdjust="spacing" textLength="108.3799" x="194.2141" y="300.1294">Refund payment</text></g><g class="message" data-entity-1="part2" data-entity-2="part3" id="msg6"><polygon fill="#C0392B" points="650.7539,360.5938,660.7539,364.5938,650.7539,368.5938,654.7539,364.5938" style="stroke:#C0392B;stroke-width:1;"/><line style="stroke:#C0392B;stroke-width:1;" x1="376.8232" x2="656.7539" y1="364.5938" y2="364.5938"/><text fill="#000000" font-family="sans-serif" font-size="13" lengthAdjust="spacing" textLength="24.7939" x="417.7717" y="344.395">S06</text><text fill="#000000" font-family="sans-serif" font-size="13" lengthAdjust="spacing" textLength="175.2397" x="446.5657" y="329.2622">refund(paymentRequestId,</text><text fill="#000000" font-family="sans-serif" font-size="13" lengthAdjust="spacing" textLength="112.2583" x="478.0564" y="344.395">refundRequestId,</text><text fill="#000000" font-family="sans-serif" font-size="13" lengthAdjust="spacing" textLength="98.8076" x="484.7817" y="359.5278">refundAmount)</text></g><g class="message" data-entity-1="part3" data-entity-2="part2" id="msg7"><polygon fill="#C0392B" points="387.8232,389.7266,377.8232,393.7266,387.8232,397.7266,383.8232,393.7266" style="stroke:#C0392B;stroke-width:1;"/><line style="stroke:#C0392B;stroke-width:1;stroke-dasharray:2,2;" x1="381.8232" x2="661.7539" y1="393.7266" y2="393.7266"/><text fill="#000000" font-family="sans-serif" font-size="13" lengthAdjust="spacing" textLength="24.7939" x="431.8" y="388.6606">S07</text><text fill="#000000" font-family="sans-serif" font-size="13" lengthAdjust="spacing" textLength="147.1831" x="460.594" y="388.6606">refund result S, F, or U</text></g><path d="M26,408.7266 L84.4429,408.7266 L84.4429,415.8594 L74.4429,425.8594 L20,425.8594 L20,414.7266 A6,6 0 0 1 26,408.7266" fill="#EEEEEE" style="stroke:#000000;stroke-width:1.5;"/><rect fill="none" height="163.2734" rx="6" ry="6" style="stroke:#000000;stroke-width:1.5;" width="719.5786" x="20" y="408.7266"/><text fill="#000000" font-family="sans-serif" font-size="13" font-weight="bold" lengthAdjust="spacing" textLength="19.4429" x="35" y="421.7935">alt</text><text fill="#000000" font-family="sans-serif" font-size="11" font-weight="bold" lengthAdjust="spacing" textLength="106.1113" x="99.4429" y="420.937">[Refund success]</text><g class="message" data-entity-1="part2" data-entity-2="part1" id="msg8"><polygon fill="#4A5568" points="102.1909,442.9922,92.1909,446.9922,102.1909,450.9922,98.1909,446.9922" style="stroke:#4A5568;stroke-width:1;"/><line style="stroke:#4A5568;stroke-width:1;" x1="96.1909" x2="375.8232" y1="446.9922" y2="446.9922"/><text fill="#000000" font-family="sans-serif" font-size="13" lengthAdjust="spacing" textLength="24.7939" x="103.1909" y="441.9263">S08</text><text fill="#000000" font-family="sans-serif" font-size="13" lengthAdjust="spacing" textLength="232.8384" x="131.9849" y="441.9263">Mark refunded or partially refunded</text></g><line style="stroke:#000000;stroke-width:1;stroke-dasharray:2,2;" x1="20" x2="739.5786" y1="455.9922" y2="455.9922"/><text fill="#000000" font-family="sans-serif" font-size="11" font-weight="bold" lengthAdjust="spacing" textLength="114.4956" x="25" y="466.2026">[Refund unknown]</text><g class="message" data-entity-1="part2" data-entity-2="part3" id="msg9"><polygon fill="#C0392B" points="650.7539,486.9297,660.7539,490.9297,650.7539,494.9297,654.7539,490.9297" style="stroke:#C0392B;stroke-width:1;"/><line style="stroke:#C0392B;stroke-width:1;" x1="376.8232" x2="656.7539" y1="490.9297" y2="490.9297"/><text fill="#000000" font-family="sans-serif" font-size="13" lengthAdjust="spacing" textLength="24.7939" x="411.9128" y="485.8638">S09</text><text fill="#000000" font-family="sans-serif" font-size="13" lengthAdjust="spacing" textLength="186.9575" x="440.7068" y="485.8638">Retry same refundRequestId</text></g><g class="message" data-entity-1="part3" data-entity-2="part2" id="msg10"><polygon fill="#C0392B" points="387.8232,516.0625,377.8232,520.0625,387.8232,524.0625,383.8232,520.0625" style="stroke:#C0392B;stroke-width:1;"/><line style="stroke:#C0392B;stroke-width:1;stroke-dasharray:2,2;" x1="381.8232" x2="661.7539" y1="520.0625" y2="520.0625"/><text fill="#000000" font-family="sans-serif" font-size="13" lengthAdjust="spacing" textLength="24.7939" x="445.949" y="514.9966">S10</text><text fill="#000000" font-family="sans-serif" font-size="13" lengthAdjust="spacing" textLength="118.8853" x="474.7429" y="514.9966">Final refund result</text></g><line style="stroke:#000000;stroke-width:1;stroke-dasharray:2,2;" x1="20" x2="739.5786" y1="529.0625" y2="529.0625"/><text fill="#000000" font-family="sans-serif" font-size="11" font-weight="bold" lengthAdjust="spacing" textLength="93.2207" x="25" y="539.2729">[Refund failed]</text><g class="message" data-entity-1="part2" data-entity-2="part1" id="msg11"><polygon fill="#4A5568" points="102.1909,560,92.1909,564,102.1909,568,98.1909,564" style="stroke:#4A5568;stroke-width:1;"/><line style="stroke:#4A5568;stroke-width:1;" x1="96.1909" x2="375.8232" y1="564" y2="564"/><text fill="#000000" font-family="sans-serif" font-size="13" lengthAdjust="spacing" textLength="24.7939" x="136.6113" y="558.9341">S11</text><text fill="#000000" font-family="sans-serif" font-size="13" lengthAdjust="spacing" textLength="165.9976" x="165.4053" y="558.9341">Correct request and retry</text></g><path d="M305,597 L305,625 A6,6 0 0 0 311,631 L728,631 A6,6 0 0 0 734,625 L734,601 L724,591 L311,591 A6,6 0 0 0 305,597" fill="#FEFFDD" style="stroke:#181818;stroke-width:0.5;"/><path d="M724,591 L724,598 A3,3 0 0 0 727,601 L734,601 L724,591" fill="#FEFFDD" style="stroke:#181818;stroke-width:0.5;"/><text fill="#000000" font-family="sans-serif" font-size="13" lengthAdjust="spacing" textLength="376.2192" x="327.0154" y="608.0669">cancelPayment uses paymentRequestId for idempotency.</text><text fill="#000000" font-family="sans-serif" font-size="13" lengthAdjust="spacing" textLength="304.002" x="327.0154" y="623.1997">refund uses refundRequestId for idempotency.</text><rect fill="none" height="109.4844" rx="6" ry="6" style="stroke:#000000;stroke-width:1;" width="304.3896" x="442.189" y="734.5625"/><text fill="#000000" font-family="sans-serif" font-size="14" font-weight="bold" lengthAdjust="spacing" textLength="41.2139" x="452.063" y="754.5576">Color</text><text fill="#000000" font-family="sans-serif" font-size="14" font-weight="bold" lengthAdjust="spacing" textLength="58.3174" x="503.0249" y="754.5576">System</text><rect fill="#FFF2CC" height="16.2969" style="stroke:none;stroke-width:1;" width="50.9619" x="447.189" y="757.8594"/><text fill="#000000" font-family="sans-serif" font-size="14" lengthAdjust="spacing" textLength="4.4502" x="447.189" y="770.8545">&#160;</text><text fill="#000000" font-family="sans-serif" font-size="14" lengthAdjust="spacing" textLength="156.543" x="502.6011" y="770.8545">Merchant / Operations</text><rect fill="#CFE2FF" height="16.2969" style="stroke:none;stroke-width:1;" width="50.9619" x="447.189" y="774.1563"/><text fill="#000000" font-family="sans-serif" font-size="14" lengthAdjust="spacing" textLength="4.4502" x="447.189" y="787.1514">&#160;</text><text fill="#000000" font-family="sans-serif" font-size="14" lengthAdjust="spacing" textLength="148.9893" x="502.6011" y="787.1514">Your Backend / ACQP</text><rect fill="#F4CCCC" height="16.2969" style="stroke:none;stroke-width:1;" width="50.9619" x="447.189" y="790.4531"/><text fill="#000000" font-family="sans-serif" font-size="14" lengthAdjust="spacing" textLength="4.4502" x="447.189" y="803.4482">&#160;</text><text fill="#000000" font-family="sans-serif" font-size="14" lengthAdjust="spacing" textLength="119.6494" x="502.6011" y="803.4482">Alipay+ Backend</text><line style="stroke:#000000;stroke-width:1;" x1="447.189" x2="663.5942" y1="741.5625" y2="741.5625"/><line style="stroke:#000000;stroke-width:1;" x1="447.189" x2="663.5942" y1="757.8594" y2="757.8594"/><line style="stroke:#000000;stroke-width:1;" x1="447.189" x2="663.5942" y1="774.1563" y2="774.1563"/><line style="stroke:#000000;stroke-width:1;" x1="447.189" x2="663.5942" y1="790.4531" y2="790.4531"/><line style="stroke:#000000;stroke-width:1;" x1="447.189" x2="663.5942" y1="806.75" y2="806.75"/><line style="stroke:#000000;stroke-width:1;" x1="447.189" x2="447.189" y1="741.5625" y2="806.75"/><line style="stroke:#000000;stroke-width:1;" x1="498.1509" x2="498.1509" y1="741.5625" y2="806.75"/><line style="stroke:#000000;stroke-width:1;" x1="663.5942" x2="663.5942" y1="741.5625" y2="806.75"/><line style="stroke:#000000;stroke-width:1;" x1="442.189" x2="746.5786" y1="813.75" y2="813.75"/><rect fill="#C0392B" height="16.2969" style="stroke:none;stroke-width:1;" width="4.4502" x="447.189" y="820.75"/><text fill="#000000" font-family="sans-serif" font-size="14" lengthAdjust="spacing" textLength="4.4502" x="447.189" y="833.7451">&#160;</text><text fill="#000000" font-family="sans-serif" font-size="14" lengthAdjust="spacing" textLength="281.0391" x="456.0894" y="833.7451">Red arrows = Alipay+ backend API calls</text><line style="stroke:#000000;stroke-width:1;" x1="447.189" x2="741.5786" y1="820.75" y2="820.75"/><line style="stroke:#000000;stroke-width:1;" x1="447.189" x2="741.5786" y1="837.0469" y2="837.0469"/><line style="stroke:#000000;stroke-width:1;" x1="447.189" x2="447.189" y1="820.75" y2="837.0469"/><line style="stroke:#000000;stroke-width:1;" x1="451.6392" x2="451.6392" y1="820.75" y2="837.0469"/><line style="stroke:#000000;stroke-width:1;" x1="741.5786" x2="741.5786" y1="820.75" y2="837.0469"/><?plantuml-src XLF1Rjf04BtxAqRaqghGf3I9qgg915OjvH25WdgesXuMUu0LwrrtTbrgYO_lx7f3Z8bQBi3EcvdtPjuuwHJ2p5WtceccHEtWiK8IJXfjOGIfq3agC0HpNDMwIEnMwagGA64fyksQ33-cHZ5Wjv4EEt6x4ONPIRs6bL3sA8A_QkIw3sYjMED4oRM6d7iZTL2XT6v88y6xSISm8JAxjkVPvUJgwlgc4vm9SZANbT1kQgX0Yi2hwVNqvgXAxWoz14aKhb4NG7AzSSd-5jem_rWqrc49-sJ_wIpBid6QtktX0IdVS3SuxqukODBiypZB6FFDr0HJdfUlUmwJzCiiLhbCqr25Pr29viq1j4z6_0b5Bjv_64yPCiS2X9TkuVQ0NqRyP7OFkL3AT-R_hOGa4Lua30uS-SzZPGSWhF-6g2AfdeS6WnV8XeJ0EcewpkYHRz6CRTKnYzePNPTBNkHWSN4nu1Vb89DQAAYYwwmJhhQW3PDSEY4rgrtYoX02_gaaDGa4ogExGEJZapDZFaS3lz7tEB2VZ6DK7b3HsgyYUExzPzrzyTgdTPD6X_9j8X3QMZrNl_CSkBSo5Y5uXpTWcQhH7bhnwZ51TZiyNPEjynonyBlpdiBVI9PbIvOQdlkosZFxdomAg1Czmn-wZPo-J4e-9_SFmIqi2eR54BAXjyjNpl3RYho276lviJUI1q7RMCEFWo0uX1tP75uvAOmcbghrLfkTxfJgYPoZemQiA15wgjgSbtMqjZfIqsky4b9XSIeXDKIOEquARUB2NB2UlwPmKMnGtZnlCUGEcKLov36eBLheBmROo20BB2jErtdpDea40xgdxXJiBz4t_Wi0?></g></svg>