<?plantuml 1.2026.1?><svg xmlns="http://www.w3.org/2000/svg" xmlns:xlink="http://www.w3.org/1999/xlink" contentStyleType="text/css" data-diagram-type="SEQUENCE" height="1221px" preserveAspectRatio="none" style="width:2401px;height:1221px;background:#FFFFFF;" version="1.1" viewBox="0 0 2401 1221" width="2401px" zoomAndPan="magnify"><title>Funds, Clearing, Settlement, and Merchant Payout</title><defs/><g><text fill="#000000" font-family="sans-serif" font-size="14" font-weight="bold" lengthAdjust="spacing" textLength="401.1328" x="996.3064" y="27.9951">Funds, Clearing, Settlement, and Merchant Payout</text><g class="participant-lifeline" data-entity-uid="part1" data-qualified-name="Customer" id="part1-lifeline"><g><title>Customer</title><rect fill="#000000" fill-opacity="0.00000" height="835.9141" width="8" x="38.002" y="118.5938"/><line style="stroke:#181818;stroke-width:0.5;stroke-dasharray:5,5;" x1="42" x2="42" y1="118.5938" y2="954.5078"/></g></g><g class="participant-lifeline" data-entity-uid="part2" data-qualified-name="Store" id="part2-lifeline"><g><title>Store POS . App</title><rect fill="#000000" fill-opacity="0.00000" height="835.9141" width="8" x="175.3276" y="118.5938"/><line style="stroke:#181818;stroke-width:0.5;stroke-dasharray:5,5;" x1="178.7891" x2="178.7891" y1="118.5938" y2="954.5078"/></g></g><g class="participant-lifeline" data-entity-uid="part3" data-qualified-name="ACQP" id="part3-lifeline"><g><title>Your Backend . ACQP</title><rect fill="#000000" fill-opacity="0.00000" height="835.9141" width="8" x="444.9448" y="118.5938"/><line style="stroke:#181818;stroke-width:0.5;stroke-dasharray:5,5;" x1="448.4502" x2="448.4502" y1="118.5938" y2="954.5078"/></g></g><g class="participant-lifeline" data-entity-uid="part4" data-qualified-name="AP" id="part4-lifeline"><g><title>Alipay. APIs</title><rect fill="#000000" fill-opacity="0.00000" height="835.9141" width="8" x="762.874" y="118.5938"/><line style="stroke:#181818;stroke-width:0.5;stroke-dasharray:5,5;" x1="766.5088" x2="766.5088" y1="118.5938" y2="954.5078"/></g></g><g class="participant-lifeline" data-entity-uid="part5" data-qualified-name="Ledger" id="part5-lifeline"><g><title>Ledger DB</title><rect fill="#000000" fill-opacity="0.00000" height="835.9141" width="8" x="863.9346" y="118.5938"/><line style="stroke:#181818;stroke-width:0.5;stroke-dasharray:5,5;" x1="867.2393" x2="867.2393" y1="118.5938" y2="954.5078"/></g></g><g class="participant-lifeline" data-entity-uid="part6" data-qualified-name="Recon" id="part6-lifeline"><g><title>Reconciliation Service</title><rect fill="#000000" fill-opacity="0.00000" height="835.9141" width="8" x="1126.7915" y="118.5938"/><line style="stroke:#181818;stroke-width:0.5;stroke-dasharray:5,5;" x1="1130.5762" x2="1130.5762" y1="118.5938" y2="954.5078"/></g></g><g class="participant-lifeline" data-entity-uid="part7" data-qualified-name="Reports" id="part7-lifeline"><g><title>Reconciliation Reports</title><rect fill="#000000" fill-opacity="0.00000" height="835.9141" width="8" x="1393.8569" y="118.5938"/><line style="stroke:#181818;stroke-width:0.5;stroke-dasharray:5,5;" x1="1397.3462" x2="1397.3462" y1="118.5938" y2="954.5078"/></g></g><g class="participant-lifeline" data-entity-uid="part8" data-qualified-name="Bank" id="part8-lifeline"><g><title>Clearing Bank</title><rect fill="#000000" fill-opacity="0.00000" height="835.9141" width="8" x="1612.1724" y="118.5938"/><line style="stroke:#181818;stroke-width:0.5;stroke-dasharray:5,5;" x1="1615.2339" x2="1615.2339" y1="118.5938" y2="954.5078"/></g></g><g class="participant-lifeline" data-entity-uid="part9" data-qualified-name="Acct" id="part9-lifeline"><g><title>ACQP Settlement Account</title><rect fill="#000000" fill-opacity="0.00000" height="835.9141" width="8" x="1804.1895" y="118.5938"/><line style="stroke:#181818;stroke-width:0.5;stroke-dasharray:5,5;" x1="1808.1484" x2="1808.1484" y1="118.5938" y2="954.5078"/></g></g><g class="participant-lifeline" data-entity-uid="part10" data-qualified-name="MSE" id="part10-lifeline"><g><title>Merchant Settlement Engine</title><rect fill="#000000" fill-opacity="0.00000" height="835.9141" width="8" x="2019.4487" y="118.5938"/><line style="stroke:#181818;stroke-width:0.5;stroke-dasharray:5,5;" x1="2023.2305" x2="2023.2305" y1="118.5938" y2="954.5078"/></g></g><g class="participant-lifeline" data-entity-uid="part11" data-qualified-name="StoreBank" id="part11-lifeline"><g><title>Merchant . Store Bank Account</title><rect fill="#000000" fill-opacity="0.00000" height="835.9141" width="8" x="2269.8833" y="118.5938"/><line style="stroke:#181818;stroke-width:0.5;stroke-dasharray:5,5;" x1="2273.021" x2="2273.021" y1="118.5938" y2="954.5078"/></g></g><g class="participant participant-head" data-entity-uid="part1" data-qualified-name="Customer" id="part1-head"><text fill="#000000" font-family="sans-serif" font-size="14" lengthAdjust="spacing" textLength="68.0039" x="5" y="115.292">Customer</text><ellipse cx="42.002" cy="50.7969" fill="#FFF2CC" rx="8" ry="8" style="stroke:#5B6B82;stroke-width:0.5;"/><path d="M42.002,58.7969 L42.002,85.7969 M29.002,66.7969 L55.002,66.7969 M42.002,85.7969 L29.002,100.7969 M42.002,85.7969 L55.002,100.7969" fill="none" style="stroke:#5B6B82;stroke-width:0.5;"/></g><g class="participant participant-tail" data-entity-uid="part1" data-qualified-name="Customer" id="part1-tail"><text fill="#000000" font-family="sans-serif" font-size="14" lengthAdjust="spacing" textLength="68.0039" x="5" y="966.5029">Customer</text><ellipse cx="42.002" cy="978.3047" fill="#FFF2CC" rx="8" ry="8" style="stroke:#5B6B82;stroke-width:0.5;"/><path d="M42.002,986.3047 L42.002,1013.3047 M29.002,994.3047 L55.002,994.3047 M42.002,1013.3047 L29.002,1028.3047 M42.002,1013.3047 L55.002,1028.3047" fill="none" style="stroke:#5B6B82;stroke-width:0.5;"/></g><g class="participant participant-head" data-entity-uid="part2" data-qualified-name="Store" id="part2-head"><rect fill="#E2F7E2" height="30.2969" rx="6" ry="6" style="stroke:#5B6B82;stroke-width:0.5;" width="125.0771" x="116.7891" y="87.2969"/><text fill="#000000" font-family="sans-serif" font-size="14" lengthAdjust="spacing" textLength="111.0771" x="123.7891" y="107.292">Store POS / App</text></g><g class="participant participant-tail" data-entity-uid="part2" data-qualified-name="Store" id="part2-tail"><rect fill="#E2F7E2" height="30.2969" rx="6" ry="6" style="stroke:#5B6B82;stroke-width:0.5;" width="125.0771" x="116.7891" y="953.5078"/><text fill="#000000" font-family="sans-serif" font-size="14" lengthAdjust="spacing" textLength="111.0771" x="123.7891" y="973.5029">Store POS / App</text></g><g class="participant participant-head" data-entity-uid="part3" data-qualified-name="ACQP" id="part3-head"><rect fill="#CFE2FF" height="30.2969" rx="6" ry="6" style="stroke:#5B6B82;stroke-width:0.5;" width="162.9893" x="367.4502" y="87.2969"/><text fill="#000000" font-family="sans-serif" font-size="14" lengthAdjust="spacing" textLength="148.9893" x="374.4502" y="107.292">Your Backend / ACQP</text></g><g class="participant participant-tail" data-entity-uid="part3" data-qualified-name="ACQP" id="part3-tail"><rect fill="#CFE2FF" height="30.2969" rx="6" ry="6" style="stroke:#5B6B82;stroke-width:0.5;" width="162.9893" x="367.4502" y="953.5078"/><text fill="#000000" font-family="sans-serif" font-size="14" lengthAdjust="spacing" textLength="148.9893" x="374.4502" y="973.5029">Your Backend / ACQP</text></g><g class="participant participant-head" data-entity-uid="part4" data-qualified-name="AP" id="part4-head"><rect fill="#F4CCCC" height="30.2969" rx="6" ry="6" style="stroke:#5B6B82;stroke-width:0.5;" width="102.7305" x="715.5088" y="87.2969"/><text fill="#000000" font-family="sans-serif" font-size="14" lengthAdjust="spacing" textLength="88.7305" x="722.5088" y="107.292">Alipay+ APIs</text></g><g class="participant participant-tail" data-entity-uid="part4" data-qualified-name="AP" id="part4-tail"><rect fill="#F4CCCC" height="30.2969" rx="6" ry="6" style="stroke:#5B6B82;stroke-width:0.5;" width="102.7305" x="715.5088" y="953.5078"/><text fill="#000000" font-family="sans-serif" font-size="14" lengthAdjust="spacing" textLength="88.7305" x="722.5088" y="973.5029">Alipay+ APIs</text></g><g class="participant participant-head" data-entity-uid="part5" data-qualified-name="Ledger" id="part5-head"><text fill="#000000" font-family="sans-serif" font-size="14" lengthAdjust="spacing" textLength="73.3906" x="828.2393" y="115.292">Ledger DB</text><path d="M849.9346,66.2969 C849.9346,56.2969 867.9346,56.2969 867.9346,56.2969 C867.9346,56.2969 885.9346,56.2969 885.9346,66.2969 L885.9346,92.2969 C885.9346,102.2969 867.9346,102.2969 867.9346,102.2969 C867.9346,102.2969 849.9346,102.2969 849.9346,92.2969 L849.9346,66.2969" fill="#F5F5F5" style="stroke:#181818;stroke-width:0.5;"/><path d="M849.9346,66.2969 C849.9346,76.2969 867.9346,76.2969 867.9346,76.2969 C867.9346,76.2969 885.9346,76.2969 885.9346,66.2969" fill="none" style="stroke:#181818;stroke-width:0.5;"/></g><g class="participant participant-tail" data-entity-uid="part5" data-qualified-name="Ledger" id="part5-tail"><text fill="#000000" font-family="sans-serif" font-size="14" lengthAdjust="spacing" textLength="73.3906" x="828.2393" y="966.5029">Ledger DB</text><path d="M849.9346,979.8047 C849.9346,969.8047 867.9346,969.8047 867.9346,969.8047 C867.9346,969.8047 885.9346,969.8047 885.9346,979.8047 L885.9346,1005.8047 C885.9346,1015.8047 867.9346,1015.8047 867.9346,1015.8047 C867.9346,1015.8047 849.9346,1015.8047 849.9346,1005.8047 L849.9346,979.8047" fill="#F5F5F5" style="stroke:#181818;stroke-width:0.5;"/><path d="M849.9346,979.8047 C849.9346,989.8047 867.9346,989.8047 867.9346,989.8047 C867.9346,989.8047 885.9346,989.8047 885.9346,979.8047" fill="none" style="stroke:#181818;stroke-width:0.5;"/></g><g class="participant participant-head" data-entity-uid="part6" data-qualified-name="Recon" id="part6-head"><rect fill="#CFE2FF" height="30.2969" rx="6" ry="6" style="stroke:#5B6B82;stroke-width:0.5;" width="168.4307" x="1046.5762" y="87.2969"/><text fill="#000000" font-family="sans-serif" font-size="14" lengthAdjust="spacing" textLength="154.4307" x="1053.5762" y="107.292">Reconciliation Service</text></g><g class="participant participant-tail" data-entity-uid="part6" data-qualified-name="Recon" id="part6-tail"><rect fill="#CFE2FF" height="30.2969" rx="6" ry="6" style="stroke:#5B6B82;stroke-width:0.5;" width="168.4307" x="1046.5762" y="953.5078"/><text fill="#000000" font-family="sans-serif" font-size="14" lengthAdjust="spacing" textLength="154.4307" x="1053.5762" y="973.5029">Reconciliation Service</text></g><g class="participant participant-head" data-entity-uid="part7" data-qualified-name="Reports" id="part7-head"><rect fill="#F4CCCC" height="30.2969" rx="6" ry="6" style="stroke:#5B6B82;stroke-width:0.5;" width="171.0215" x="1312.3462" y="87.2969"/><text fill="#000000" font-family="sans-serif" font-size="14" lengthAdjust="spacing" textLength="157.0215" x="1319.3462" y="107.292">Reconciliation Reports</text></g><g class="participant participant-tail" data-entity-uid="part7" data-qualified-name="Reports" id="part7-tail"><rect fill="#F4CCCC" height="30.2969" rx="6" ry="6" style="stroke:#5B6B82;stroke-width:0.5;" width="171.0215" x="1312.3462" y="953.5078"/><text fill="#000000" font-family="sans-serif" font-size="14" lengthAdjust="spacing" textLength="157.0215" x="1319.3462" y="973.5029">Reconciliation Reports</text></g><g class="participant participant-head" data-entity-uid="part8" data-qualified-name="Bank" id="part8-head"><rect fill="#F5F5F5" height="30.2969" rx="6" ry="6" style="stroke:#5B6B82;stroke-width:0.5;" width="111.877" x="1560.2339" y="87.2969"/><text fill="#000000" font-family="sans-serif" font-size="14" lengthAdjust="spacing" textLength="97.877" x="1567.2339" y="107.292">Clearing Bank</text></g><g class="participant participant-tail" data-entity-uid="part8" data-qualified-name="Bank" id="part8-tail"><rect fill="#F5F5F5" height="30.2969" rx="6" ry="6" style="stroke:#5B6B82;stroke-width:0.5;" width="111.877" x="1560.2339" y="953.5078"/><text fill="#000000" font-family="sans-serif" font-size="14" lengthAdjust="spacing" textLength="97.877" x="1567.2339" y="973.5029">Clearing Bank</text></g><g class="participant participant-head" data-entity-uid="part9" data-qualified-name="Acct" id="part9-head"><rect fill="#F5F5F5" height="30.2969" rx="6" ry="6" style="stroke:#5B6B82;stroke-width:0.5;" width="196.082" x="1710.1484" y="87.2969"/><text fill="#000000" font-family="sans-serif" font-size="14" lengthAdjust="spacing" textLength="182.082" x="1717.1484" y="107.292">ACQP Settlement Account</text></g><g class="participant participant-tail" data-entity-uid="part9" data-qualified-name="Acct" id="part9-tail"><rect fill="#F5F5F5" height="30.2969" rx="6" ry="6" style="stroke:#5B6B82;stroke-width:0.5;" width="196.082" x="1710.1484" y="953.5078"/><text fill="#000000" font-family="sans-serif" font-size="14" lengthAdjust="spacing" textLength="182.082" x="1717.1484" y="973.5029">ACQP Settlement Account</text></g><g class="participant participant-head" data-entity-uid="part10" data-qualified-name="MSE" id="part10-head"><rect fill="#CFE2FF" height="30.2969" rx="6" ry="6" style="stroke:#5B6B82;stroke-width:0.5;" width="214.4365" x="1916.2305" y="87.2969"/><text fill="#000000" font-family="sans-serif" font-size="14" lengthAdjust="spacing" textLength="200.4365" x="1923.2305" y="107.292">Merchant Settlement Engine</text></g><g class="participant participant-tail" data-entity-uid="part10" data-qualified-name="MSE" id="part10-tail"><rect fill="#CFE2FF" height="30.2969" rx="6" ry="6" style="stroke:#5B6B82;stroke-width:0.5;" width="214.4365" x="1916.2305" y="953.5078"/><text fill="#000000" font-family="sans-serif" font-size="14" lengthAdjust="spacing" textLength="200.4365" x="1923.2305" y="973.5029">Merchant Settlement Engine</text></g><g class="participant participant-head" data-entity-uid="part11" data-qualified-name="StoreBank" id="part11-head"><rect fill="#F5F5F5" height="30.2969" rx="6" ry="6" style="stroke:#5B6B82;stroke-width:0.5;" width="231.7246" x="2158.021" y="87.2969"/><text fill="#000000" font-family="sans-serif" font-size="14" lengthAdjust="spacing" textLength="217.7246" x="2165.021" y="107.292">Merchant / Store Bank Account</text></g><g class="participant participant-tail" data-entity-uid="part11" data-qualified-name="StoreBank" id="part11-tail"><rect fill="#F5F5F5" height="30.2969" rx="6" ry="6" style="stroke:#5B6B82;stroke-width:0.5;" width="231.7246" x="2158.021" y="953.5078"/><text fill="#000000" font-family="sans-serif" font-size="14" lengthAdjust="spacing" textLength="217.7246" x="2165.021" y="973.5029">Merchant / Store Bank Account</text></g><g class="message" data-entity-1="part1" data-entity-2="part2" id="msg1"><polygon fill="#4A5568" points="167.3276,145.7266,177.3276,149.7266,167.3276,153.7266,171.3276,149.7266" style="stroke:#4A5568;stroke-width:1;"/><line style="stroke:#4A5568;stroke-width:1;" x1="42.002" x2="173.3276" y1="149.7266" y2="149.7266"/><text fill="#000000" font-family="sans-serif" font-size="13" lengthAdjust="spacing" textLength="24.7939" x="54.002" y="144.6606">S01</text><text fill="#000000" font-family="sans-serif" font-size="13" lengthAdjust="spacing" textLength="84.5317" x="82.7959" y="144.6606">Pay for order</text></g><g class="message" data-entity-1="part2" data-entity-2="part3" id="msg2"><polygon fill="#4A5568" points="436.9448,205.125,446.9448,209.125,436.9448,213.125,440.9448,209.125" style="stroke:#4A5568;stroke-width:1;"/><line style="stroke:#4A5568;stroke-width:1;" x1="179.3276" x2="442.9448" y1="209.125" y2="209.125"/><text fill="#000000" font-family="sans-serif" font-size="13" lengthAdjust="spacing" textLength="24.7939" x="191.3276" y="188.9263">S02</text><text fill="#000000" font-family="sans-serif" font-size="13" lengthAdjust="spacing" textLength="105.5234" x="275.7715" y="173.7935">Create payment</text><text fill="#000000" font-family="sans-serif" font-size="13" lengthAdjust="spacing" textLength="216.8232" x="220.1216" y="188.9263">(paymentAmount / orderAmount,</text><text fill="#000000" font-family="sans-serif" font-size="13" lengthAdjust="spacing" textLength="180.8447" x="238.1108" y="204.0591">settlement currency config)</text></g><g class="message" data-entity-1="part3" data-entity-2="part4" id="msg3"><polygon fill="#C0392B" points="754.874,264.5234,764.874,268.5234,754.874,272.5234,758.874,268.5234" style="stroke:#C0392B;stroke-width:1;"/><line style="stroke:#C0392B;stroke-width:1;" x1="448.9448" x2="760.874" y1="268.5234" y2="268.5234"/><text fill="#000000" font-family="sans-serif" font-size="13" lengthAdjust="spacing" textLength="24.7939" x="460.9448" y="248.3247">S03</text><text fill="#000000" font-family="sans-serif" font-size="13" lengthAdjust="spacing" textLength="45.5127" x="599.55" y="233.1919">pay(...,</text><text fill="#000000" font-family="sans-serif" font-size="13" lengthAdjust="spacing" textLength="113.1279" x="565.7424" y="248.3247">paymentAmount,</text><text fill="#000000" font-family="sans-serif" font-size="13" lengthAdjust="spacing" textLength="265.1353" x="489.7388" y="263.4575">settlementStrategy.settlementCurrency)</text></g><g class="message" data-entity-1="part4" data-entity-2="part3" id="msg4"><polygon fill="#C0392B" points="459.9448,293.6563,449.9448,297.6563,459.9448,301.6563,455.9448,297.6563" style="stroke:#C0392B;stroke-width:1;"/><line style="stroke:#C0392B;stroke-width:1;stroke-dasharray:2,2;" x1="453.9448" x2="765.874" y1="297.6563" y2="297.6563"/><text fill="#000000" font-family="sans-serif" font-size="13" lengthAdjust="spacing" textLength="24.7939" x="491.6389" y="292.5903">S04</text><text fill="#000000" font-family="sans-serif" font-size="13" lengthAdjust="spacing" textLength="203.7471" x="520.4329" y="292.5903">payment accepted / final result</text></g><path d="M385,316.6563 L385,374.6563 A6,6 0 0 0 391,380.6563 L824,380.6563 A6,6 0 0 0 830,374.6563 L830,320.6563 L820,310.6563 L391,310.6563 A6,6 0 0 0 385,316.6563" fill="#FEFFDD" style="stroke:#181818;stroke-width:0.5;"/><path d="M820,310.6563 L820,317.6563 A3,3 0 0 0 823,320.6563 L830,320.6563 L820,310.6563" fill="#FEFFDD" style="stroke:#181818;stroke-width:0.5;"/><text fill="#000000" font-family="sans-serif" font-size="13" lengthAdjust="spacing" textLength="147.5259" x="465.6091" y="327.7231">Official amount layers:</text><text fill="#000000" font-family="sans-serif" font-size="13" lengthAdjust="spacing" textLength="264.7036" x="465.6091" y="342.856">- paymentAmount = transaction amount</text><text fill="#000000" font-family="sans-serif" font-size="13" lengthAdjust="spacing" textLength="253.2207" x="465.6091" y="357.9888">- settlementAmount / settlementQuote</text><text fill="#000000" font-family="sans-serif" font-size="13" lengthAdjust="spacing" textLength="267.3062" x="473.8738" y="373.1216">are returned on success when applicable</text><g class="message" data-entity-1="part3" data-entity-2="part5" id="msg5"><polygon fill="#2E8B57" points="855.9346,418.4531,865.9346,422.4531,855.9346,426.4531,859.9346,422.4531" style="stroke:#2E8B57;stroke-width:1;"/><line style="stroke:#2E8B57;stroke-width:1;" x1="448.9448" x2="861.9346" y1="422.4531" y2="422.4531"/><text fill="#000000" font-family="sans-serif" font-size="13" lengthAdjust="spacing" textLength="24.7939" x="558.3652" y="409.8208">S05</text><text fill="#000000" font-family="sans-serif" font-size="13" lengthAdjust="spacing" textLength="149.1509" x="598.2612" y="402.2544">Book gross transaction</text><text fill="#000000" font-family="sans-serif" font-size="13" lengthAdjust="spacing" textLength="171.355" x="587.1592" y="417.3872">and provisional receivable</text></g><g class="message" data-entity-1="part7" data-entity-2="part6" id="msg6"><polygon fill="#C0392B" points="1141.7915,447.5859,1131.7915,451.5859,1141.7915,455.5859,1137.7915,451.5859" style="stroke:#C0392B;stroke-width:1;"/><line style="stroke:#C0392B;stroke-width:1;" x1="1135.7915" x2="1396.8569" y1="451.5859" y2="451.5859"/><text fill="#000000" font-family="sans-serif" font-size="13" lengthAdjust="spacing" textLength="24.7939" x="1155.1948" y="446.52">S06</text><text fill="#000000" font-family="sans-serif" font-size="13" lengthAdjust="spacing" textLength="189.4648" x="1183.9888" y="446.52">T+1 transaction detail report</text></g><g class="message" data-entity-1="part7" data-entity-2="part6" id="msg7"><polygon fill="#C0392B" points="1141.7915,476.7188,1131.7915,480.7188,1141.7915,484.7188,1137.7915,480.7188" style="stroke:#C0392B;stroke-width:1;"/><line style="stroke:#C0392B;stroke-width:1;" x1="1135.7915" x2="1396.8569" y1="480.7188" y2="480.7188"/><text fill="#000000" font-family="sans-serif" font-size="13" lengthAdjust="spacing" textLength="24.7939" x="1201.9612" y="475.6528">S07</text><text fill="#000000" font-family="sans-serif" font-size="13" lengthAdjust="spacing" textLength="95.9321" x="1230.7551" y="475.6528">T+1 fee report</text></g><g class="message" data-entity-1="part7" data-entity-2="part6" id="msg8"><polygon fill="#C0392B" points="1141.7915,505.8516,1131.7915,509.8516,1141.7915,513.8516,1137.7915,509.8516" style="stroke:#C0392B;stroke-width:1;"/><line style="stroke:#C0392B;stroke-width:1;" x1="1135.7915" x2="1396.8569" y1="509.8516" y2="509.8516"/><text fill="#000000" font-family="sans-serif" font-size="13" lengthAdjust="spacing" textLength="24.7939" x="1142.7915" y="504.7856">S08</text><text fill="#000000" font-family="sans-serif" font-size="13" lengthAdjust="spacing" textLength="214.2715" x="1171.5854" y="504.7856">T+1 transaction summary report</text></g><g class="message" data-entity-1="part6" data-entity-2="part5" id="msg9"><polygon fill="#2E8B57" points="878.9346,550.1172,868.9346,554.1172,878.9346,558.1172,874.9346,554.1172" style="stroke:#2E8B57;stroke-width:1;"/><line style="stroke:#2E8B57;stroke-width:1;" x1="872.9346" x2="1129.7915" y1="554.1172" y2="554.1172"/><text fill="#000000" font-family="sans-serif" font-size="13" lengthAdjust="spacing" textLength="24.7939" x="890.4336" y="541.4849">S09</text><text fill="#000000" font-family="sans-serif" font-size="13" lengthAdjust="spacing" textLength="175.6587" x="925.9307" y="533.9185">Match transaction amount,</text><text fill="#000000" font-family="sans-serif" font-size="13" lengthAdjust="spacing" textLength="189.0649" x="919.2275" y="549.0513">settlement amount, and fees</text></g><g class="message" data-entity-1="part7" data-entity-2="part8" id="msg10"><polygon fill="#C0392B" points="1604.1724,579.25,1614.1724,583.25,1604.1724,587.25,1608.1724,583.25" style="stroke:#C0392B;stroke-width:1;"/><line style="stroke:#C0392B;stroke-width:1;" x1="1397.8569" x2="1610.1724" y1="583.25" y2="583.25"/><text fill="#000000" font-family="sans-serif" font-size="13" lengthAdjust="spacing" textLength="24.7939" x="1409.8569" y="578.1841">S10</text><text fill="#000000" font-family="sans-serif" font-size="13" lengthAdjust="spacing" textLength="165.5215" x="1438.6509" y="578.1841">Settlement report / batch</text></g><g class="message" data-entity-1="part8" data-entity-2="part9" id="msg11"><polygon fill="#2E8B57" points="1796.1895,623.5156,1806.1895,627.5156,1796.1895,631.5156,1800.1895,627.5156" style="stroke:#2E8B57;stroke-width:1;"/><line style="stroke:#2E8B57;stroke-width:1;" x1="1616.1724" x2="1802.1895" y1="627.5156" y2="627.5156"/><text fill="#000000" font-family="sans-serif" font-size="13" lengthAdjust="spacing" textLength="24.7939" x="1628.1724" y="614.8833">S11</text><text fill="#000000" font-family="sans-serif" font-size="13" lengthAdjust="spacing" textLength="137.7378" x="1657.709" y="607.3169">Net settlement funds</text><text fill="#000000" font-family="sans-serif" font-size="13" lengthAdjust="spacing" textLength="139.2231" x="1656.9663" y="622.4497">on agreed value date</text></g><g class="message" data-entity-1="part6" data-entity-2="part5" id="msg12"><polygon fill="#2E8B57" points="878.9346,667.7813,868.9346,671.7813,878.9346,675.7813,874.9346,671.7813" style="stroke:#2E8B57;stroke-width:1;"/><line style="stroke:#2E8B57;stroke-width:1;" x1="872.9346" x2="1129.7915" y1="671.7813" y2="671.7813"/><text fill="#000000" font-family="sans-serif" font-size="13" lengthAdjust="spacing" textLength="24.7939" x="879.9346" y="659.1489">S12</text><text fill="#000000" font-family="sans-serif" font-size="13" lengthAdjust="spacing" textLength="210.063" x="908.7285" y="651.5825">Confirm net settlement amount,</text><text fill="#000000" font-family="sans-serif" font-size="13" lengthAdjust="spacing" textLength="188.627" x="919.4465" y="666.7153">settlement batch, value date</text></g><g class="message" data-entity-1="part10" data-entity-2="part5" id="msg13"><polygon fill="#2E8B57" points="878.9346,696.9141,868.9346,700.9141,878.9346,704.9141,874.9346,700.9141" style="stroke:#2E8B57;stroke-width:1;"/><line style="stroke:#2E8B57;stroke-width:1;" x1="872.9346" x2="2022.4487" y1="700.9141" y2="700.9141"/><text fill="#000000" font-family="sans-serif" font-size="13" lengthAdjust="spacing" textLength="24.7939" x="1335.8037" y="695.8481">S13</text><text fill="#000000" font-family="sans-serif" font-size="13" lengthAdjust="spacing" textLength="190.9819" x="1364.5977" y="695.8481">Apply merchant contract rule</text></g><path d="M796,719.9141 L796,777.9141 A6,6 0 0 0 802,783.9141 L2087,783.9141 A6,6 0 0 0 2093,777.9141 L2093,723.9141 L2083,713.9141 L802,713.9141 A6,6 0 0 0 796,719.9141" fill="#FEFFDD" style="stroke:#181818;stroke-width:0.5;"/><path d="M2083,713.9141 L2083,720.9141 A3,3 0 0 0 2086,723.9141 L2093,723.9141 L2083,713.9141" fill="#FEFFDD" style="stroke:#181818;stroke-width:0.5;"/><text fill="#000000" font-family="sans-serif" font-size="13" lengthAdjust="spacing" textLength="274.8853" x="1302.7712" y="730.981">Official docs define ACQP-level settlement</text><text fill="#000000" font-family="sans-serif" font-size="13" lengthAdjust="spacing" textLength="155.9492" x="1302.7712" y="746.1138">and reconciliation facts.</text><text fill="#000000" font-family="sans-serif" font-size="13" lengthAdjust="spacing" textLength="216.2583" x="1302.7712" y="761.2466">Merchant payout is still your own</text><text fill="#000000" font-family="sans-serif" font-size="13" lengthAdjust="spacing" textLength="167.9526" x="1302.7712" y="776.3794">contract and finance rule.</text><g class="message" data-entity-1="part10" data-entity-2="part11" id="msg14"><polygon fill="#2E8B57" points="2261.8833,806.5781,2271.8833,810.5781,2261.8833,814.5781,2265.8833,810.5781" style="stroke:#2E8B57;stroke-width:1;"/><line style="stroke:#2E8B57;stroke-width:1;" x1="2023.4487" x2="2267.8833" y1="810.5781" y2="810.5781"/><text fill="#000000" font-family="sans-serif" font-size="13" lengthAdjust="spacing" textLength="24.7939" x="2035.4487" y="805.5122">S14</text><text fill="#000000" font-family="sans-serif" font-size="13" lengthAdjust="spacing" textLength="197.6406" x="2064.2427" y="805.5122">Payout merchant / store funds</text></g><path d="M1048,829.5781 L1048,932.5781 A6,6 0 0 0 1054,938.5781 L1473,938.5781 A6,6 0 0 0 1479,932.5781 L1479,833.5781 L1469,823.5781 L1054,823.5781 A6,6 0 0 0 1048,829.5781" fill="#FEFFDD" style="stroke:#181818;stroke-width:0.5;"/><path d="M1469,823.5781 L1469,830.5781 A3,3 0 0 0 1472,833.5781 L1479,833.5781 L1469,823.5781" fill="#FEFFDD" style="stroke:#181818;stroke-width:0.5;"/><text fill="#000000" font-family="sans-serif" font-size="13" lengthAdjust="spacing" textLength="165.3818" x="1105.8015" y="840.645">Official reconciliation set:</text><text fill="#000000" font-family="sans-serif" font-size="13" lengthAdjust="spacing" textLength="170.6504" x="1105.8015" y="855.7778">Transaction Detail Report,</text><text fill="#000000" font-family="sans-serif" font-size="13" lengthAdjust="spacing" textLength="75.4165" x="1105.8015" y="870.9106">Fee Report,</text><text fill="#000000" font-family="sans-serif" font-size="13" lengthAdjust="spacing" textLength="195.1777" x="1105.8015" y="886.0435">Transaction Summary Report,</text><text fill="#000000" font-family="sans-serif" font-size="13" lengthAdjust="spacing" textLength="123.9951" x="1105.8015" y="901.1763">Settlement Report.</text><text fill="#000000" font-family="sans-serif" font-size="13" lengthAdjust="spacing" textLength="210.4312" x="1105.8015" y="916.3091">These reports define ACQP-level</text><text fill="#000000" font-family="sans-serif" font-size="13" lengthAdjust="spacing" textLength="307.1885" x="1105.8015" y="931.4419">calculation inputs, not merchant payout policy.</text><rect fill="none" height="158.375" rx="6" ry="6" style="stroke:#000000;stroke-width:1;" width="368.333" x="2013.4126" y="1042.8047"/><text fill="#000000" font-family="sans-serif" font-size="14" font-weight="bold" lengthAdjust="spacing" textLength="41.2139" x="2023.2866" y="1062.7998">Color</text><text fill="#000000" font-family="sans-serif" font-size="14" font-weight="bold" lengthAdjust="spacing" textLength="58.3174" x="2074.2485" y="1062.7998">System</text><rect fill="#FFF2CC" height="16.2969" style="stroke:none;stroke-width:1;" width="50.9619" x="2018.4126" y="1066.1016"/><text fill="#000000" font-family="sans-serif" font-size="14" lengthAdjust="spacing" textLength="4.4502" x="2018.4126" y="1079.0967">&#160;</text><text fill="#000000" font-family="sans-serif" font-size="14" lengthAdjust="spacing" textLength="136.1992" x="2073.8247" y="1079.0967">Customer / Finance</text><rect fill="#E2F7E2" height="16.2969" style="stroke:none;stroke-width:1;" width="50.9619" x="2018.4126" y="1082.3984"/><text fill="#000000" font-family="sans-serif" font-size="14" lengthAdjust="spacing" textLength="4.4502" x="2018.4126" y="1095.3936">&#160;</text><text fill="#000000" font-family="sans-serif" font-size="14" lengthAdjust="spacing" textLength="168.0068" x="2073.8247" y="1095.3936">Your store-side systems</text><rect fill="#CFE2FF" height="16.2969" style="stroke:none;stroke-width:1;" width="50.9619" x="2018.4126" y="1098.6953"/><text fill="#000000" font-family="sans-serif" font-size="14" lengthAdjust="spacing" textLength="4.4502" x="2018.4126" y="1111.6904">&#160;</text><text fill="#000000" font-family="sans-serif" font-size="14" lengthAdjust="spacing" textLength="183.3535" x="2073.8247" y="1111.6904">Your backend / ACQP core</text><rect fill="#F4CCCC" height="16.2969" style="stroke:none;stroke-width:1;" width="50.9619" x="2018.4126" y="1114.9922"/><text fill="#000000" font-family="sans-serif" font-size="14" lengthAdjust="spacing" textLength="4.4502" x="2018.4126" y="1127.9873">&#160;</text><text fill="#000000" font-family="sans-serif" font-size="14" lengthAdjust="spacing" textLength="182.9092" x="2073.8247" y="1127.9873">Alipay+ backend / reports</text><rect fill="#F5F5F5" height="16.2969" style="stroke:none;stroke-width:1;" width="50.9619" x="2018.4126" y="1131.2891"/><text fill="#000000" font-family="sans-serif" font-size="14" lengthAdjust="spacing" textLength="4.4502" x="2018.4126" y="1144.2842">&#160;</text><text fill="#000000" font-family="sans-serif" font-size="14" lengthAdjust="spacing" textLength="203.0273" x="2073.8247" y="1144.2842">Ledger / bank / report record</text><line style="stroke:#000000;stroke-width:1;" x1="2018.4126" x2="2281.3022" y1="1049.8047" y2="1049.8047"/><line style="stroke:#000000;stroke-width:1;" x1="2018.4126" x2="2281.3022" y1="1066.1016" y2="1066.1016"/><line style="stroke:#000000;stroke-width:1;" x1="2018.4126" x2="2281.3022" y1="1082.3984" y2="1082.3984"/><line style="stroke:#000000;stroke-width:1;" x1="2018.4126" x2="2281.3022" y1="1098.6953" y2="1098.6953"/><line style="stroke:#000000;stroke-width:1;" x1="2018.4126" x2="2281.3022" y1="1114.9922" y2="1114.9922"/><line style="stroke:#000000;stroke-width:1;" x1="2018.4126" x2="2281.3022" y1="1131.2891" y2="1131.2891"/><line style="stroke:#000000;stroke-width:1;" x1="2018.4126" x2="2281.3022" y1="1147.5859" y2="1147.5859"/><line style="stroke:#000000;stroke-width:1;" x1="2018.4126" x2="2018.4126" y1="1049.8047" y2="1147.5859"/><line style="stroke:#000000;stroke-width:1;" x1="2069.3745" x2="2069.3745" y1="1049.8047" y2="1147.5859"/><line style="stroke:#000000;stroke-width:1;" x1="2281.3022" x2="2281.3022" y1="1049.8047" y2="1147.5859"/><line style="stroke:#000000;stroke-width:1;" x1="2013.4126" x2="2381.7456" y1="1154.5859" y2="1154.5859"/><rect fill="#C0392B" height="16.2969" style="stroke:none;stroke-width:1;" width="4.4502" x="2018.4126" y="1161.5859"/><text fill="#000000" font-family="sans-serif" font-size="14" lengthAdjust="spacing" textLength="4.4502" x="2018.4126" y="1174.5811">&#160;</text><text fill="#000000" font-family="sans-serif" font-size="14" lengthAdjust="spacing" textLength="334.8926" x="2027.313" y="1174.5811">Red arrows = Alipay+ API or report interactions</text><rect fill="#2E8B57" height="16.2969" style="stroke:none;stroke-width:1;" width="4.4502" x="2018.4126" y="1177.8828"/><text fill="#000000" font-family="sans-serif" font-size="14" lengthAdjust="spacing" textLength="4.4502" x="2018.4126" y="1190.8779">&#160;</text><text fill="#000000" font-family="sans-serif" font-size="14" lengthAdjust="spacing" textLength="344.9824" x="2027.313" y="1190.8779">Green arrows = internal ledger or payout actions</text><line style="stroke:#000000;stroke-width:1;" x1="2018.4126" x2="2376.7456" y1="1161.5859" y2="1161.5859"/><line style="stroke:#000000;stroke-width:1;" x1="2018.4126" x2="2376.7456" y1="1177.8828" y2="1177.8828"/><line style="stroke:#000000;stroke-width:1;" x1="2018.4126" x2="2376.7456" y1="1194.1797" y2="1194.1797"/><line style="stroke:#000000;stroke-width:1;" x1="2018.4126" x2="2018.4126" y1="1161.5859" y2="1194.1797"/><line style="stroke:#000000;stroke-width:1;" x1="2022.8628" x2="2022.8628" y1="1161.5859" y2="1194.1797"/><line style="stroke:#000000;stroke-width:1;" x1="2376.7456" x2="2376.7456" y1="1161.5859" y2="1194.1797"/><?plantuml-src ZLRRRXit47tdLmoSbnIHP4UD4bUe0qWRRr2WRXJBBqNT1sftj29CaLkIAqE0Fxx3Y_RY2csj1--ISpddS6QuJZY9a3Ugj2F8978ZL3M2DJfQtwDo8-2gX3iqnOuh1oj-r8rZzacecXk-XmqldYgZAK2cfJRml1CEU_jsnqlzJ45XowKTxE1V3Qe2xz1QNk52Yaf1GIdHzAn2w48RXGRUJtiR2sFqSypvviDYDljutTjSSUD48Mg2lDIcH9CCPykFo-j1bC9fSyw4IQoGc1jHxHnxkO6uJG_hetMuXnVsylERFC-dMVRv1RB6EhqdZ9UG2yM9LZIudUQVRgTayBjk392DmR4L9O8DKMoqodAooqzMNbAV-X8MsVSL4FaKBF-GPI4RQLNpuxkUfS5Q6vV2vJF_8xjViQm2fWrNJwqL_QEO9TcEwI_al_hnf-cI7Ewn1Ew5jN3JPbciVW6Ydfo5Fo1UEA5LIZUzlLxEFf7tLuEeElzWgRW46M5GZ3gK3tJkX3uApHZtHz49cRHbTNUKSB7s0iBgszgBKzSNm2t4jQJqq3p8kHp86Lo2hadreKUFiuscP1XrPoLtVCCjmaNIzSiocAIt9FimtZr9hGeX1VUCgQ_CGHGOtCBMUHIllExZuIQlUD0dK0E_KmCJP_KKpFt3UMH1WwxFgHCAQZKNIHU5E-_L3eAUvwsgX8gSxjQtvncrVfVfl0AmViwmF83BUEEqQlOR4lTYVNLrmLXR7UFFqM7k9n9ijQykwc4MWzEkfpU7p21twClE8trKRzFJOk_p4fZW5Tz6Zyfsf8h669fEHse_jHNL3opeDVuZzSgVb87YKxYtayc4N0U11w7MpX26wZZfbh8KdABsOuvRt2aQDKg1jKDVl5lXMycWRQHZIXChVI0XlFs8iB1lsosfJIOySfFyYCREsHY6d6-0y2WRMp0Par47hjMcM_hUK3u6rDf825n3qxW4yhODuREMXhxl-xgMek0RYRwhmKDiHOiZWaIBlJA7fTPFGFS6EVVWF2f_sTH67uIbry2tG748GTcfzFk743fb3W_ltWzebUYua6ba_PVZ5l5_MlPJs6Q_v-ROUVfkFaVrZhjYTqRqORsbjN3R4Y1xdgxlZtc_zz9GzXEUih3GFtqGlfFdy1kwtcd2rb_tZyeZgMXabt3Wia6W-OR_mYFpZM3se8R1pf49O4RziCnFXdDHQOhB8-nFuu6IEt-xW6deoBio9_THykaglTI5fQEcpi3G1sE91vGzSCohQOR3T4lHxOIr0obTISBIxIoaXAE_C_IpOYsKS2JfKlUm9brzlsRL3h5v-bBgc5t6sp-ApthKWkAZqs3lsBt2JQpcxA5NHLzYZKU_4SkfYa_FVRDrgjFJNgzuujA4FUpGOli9yGz1MS5bqSW8WpwS6aVVYeI_uvOqh3KDW6Cdpzy0?></g></svg>