<?plantuml 1.2026.1?><svg xmlns="http://www.w3.org/2000/svg" xmlns:xlink="http://www.w3.org/1999/xlink" contentStyleType="text/css" data-diagram-type="DESCRIPTION" height="1117.0833px" preserveAspectRatio="none" style="width:700px;height:1117px;background:#FFFFFF;" version="1.1" viewBox="0 0 700 1117" width="700px" zoomAndPan="magnify"><title>In-store Payment Use Case Map for Alipay+ ACQP</title><defs/><g><g class="title" data-source-line="1"><text fill="#000000" font-family="Arial" font-size="23.3333" font-weight="bold" lengthAdjust="spacing" textLength="654.1878" x="14.5833" y="36.2419">In-store Payment Use Case Map for Alipay+ ACQP</text></g><!--cluster In-store Payment Modes--><g class="cluster" data-qualified-name="In-store Payment Modes" data-source-line="30" id="ent0004"><rect fill="none" height="717.5" rx="8.75" ry="8.75" style="stroke:#181818;stroke-width:1.4583;" width="295.3708" x="370.0458" y="251.701"/><text fill="#000000" font-family="Arial" font-size="17.5" font-weight="bold" lengthAdjust="spacing" textLength="240.9412" x="397.2607" y="270.8616">In-store Payment Modes</text></g><!--entity UC1--><g class="entity" data-qualified-name="In-store Payment Modes.UC1" data-source-line="31" id="ent0005"><ellipse cx="517.7326" cy="899.1942" fill="#CFE2FF" rx="107.3201" ry="46.689" style="stroke:#5B6B82;stroke-width:0.7292;"/><text fill="#18212F" font-family="Arial" font-size="16.0417" lengthAdjust="spacing" textLength="38.9371" x="498.2641" y="871.2131">UC-1</text><text fill="#18212F" font-family="Arial" font-size="16.0417" lengthAdjust="spacing" textLength="172.5419" x="431.4617" y="889.8866">User-presented Mode</text><text fill="#18212F" font-family="Arial" font-size="16.0417" lengthAdjust="spacing" textLength="181.722" x="426.8716" y="908.5601">Customer shows code,</text><text fill="#18212F" font-family="Arial" font-size="16.0417" lengthAdjust="spacing" textLength="127.9965" x="453.7344" y="927.2336">merchant scans</text></g><!--entity UC2--><g class="entity" data-qualified-name="In-store Payment Modes.UC2" data-source-line="32" id="ent0006"><ellipse cx="517.7311" cy="754.8214" fill="#CFE2FF" rx="124.3519" ry="46.735" style="stroke:#5B6B82;stroke-width:0.7292;"/><text fill="#18212F" font-family="Arial" font-size="16.0417" lengthAdjust="spacing" textLength="38.9371" x="498.2626" y="729.7281">UC-2</text><text fill="#18212F" font-family="Arial" font-size="16.0417" lengthAdjust="spacing" textLength="211.5573" x="411.9524" y="748.4016">Merchant-presented Mode</text><text fill="#18212F" font-family="Arial" font-size="16.0417" lengthAdjust="spacing" textLength="164.4662" x="435.498" y="767.0751">Merchant shows QR,</text><text fill="#18212F" font-family="Arial" font-size="16.0417" lengthAdjust="spacing" textLength="126.1715" x="454.6454" y="785.7486">customer scans</text></g><!--entity UC2A--><g class="entity" data-qualified-name="In-store Payment Modes.UC2A" data-source-line="33" id="ent0007"><ellipse cx="517.7332" cy="337.742" fill="#FCE5CD" rx="59.1666" ry="38.9222" style="stroke:#5B6B82;stroke-width:0.7292;"/><text fill="#18212F" font-family="Arial" font-size="16.0417" lengthAdjust="spacing" textLength="49.9109" x="492.7778" y="320.5555">UC-2A</text><text fill="#18212F" font-family="Arial" font-size="16.0417" lengthAdjust="spacing" textLength="88.848" x="473.3092" y="339.229">Entry Code</text><text fill="#18212F" font-family="Arial" font-size="16.0417" lengthAdjust="spacing" textLength="74.741" x="480.3627" y="357.9025">Static QR</text></g><!--entity UC2B--><g class="entity" data-qualified-name="In-store Payment Modes.UC2B" data-source-line="34" id="ent0008"><ellipse cx="517.7332" cy="467.5403" fill="#FCE5CD" rx="108.8812" ry="39.7746" style="stroke:#5B6B82;stroke-width:0.7292;"/><text fill="#18212F" font-family="Arial" font-size="16.0417" lengthAdjust="spacing" textLength="49.9422" x="492.7621" y="446.7354">UC-2B</text><text fill="#18212F" font-family="Arial" font-size="16.0417" lengthAdjust="spacing" textLength="92.0359" x="471.7153" y="465.4089">Order Code</text><text fill="#18212F" font-family="Arial" font-size="16.0417" lengthAdjust="spacing" textLength="165.3827" x="435.0419" y="484.0824">Alipay+ dynamic QR</text></g><!--entity UC2C--><g class="entity" data-qualified-name="In-store Payment Modes.UC2C" data-source-line="35" id="ent0009"><ellipse cx="517.7262" cy="597.3201" fill="#FCE5CD" rx="99.9637" ry="39.2961" style="stroke:#5B6B82;stroke-width:0.7292;"/><text fill="#18212F" font-family="Arial" font-size="16.0417" lengthAdjust="spacing" textLength="50.138" x="492.6572" y="577.1906">UC-2C</text><text fill="#18212F" font-family="Arial" font-size="16.0417" lengthAdjust="spacing" textLength="153.3436" x="441.0544" y="595.8641">Private Order Code</text><text fill="#18212F" font-family="Arial" font-size="16.0417" lengthAdjust="spacing" textLength="147.0225" x="444.215" y="614.5376">ACQP dynamic QR</text></g><!--entity Consumer--><g class="entity" data-qualified-name="Consumer" data-source-line="27" id="ent0002"><ellipse cx="103.134" cy="712.5635" fill="#D4F1EA" rx="23.3333" ry="23.3333" style="stroke:#181818;stroke-width:0.7292;"/><path d="M103.134,741.7302 C108.9673,741.7302 113.3423,741.7302 119.1756,735.8969 C130.8423,735.8969 142.509,747.5635 142.509,759.2302 L142.509,765.0635 C142.509,770.8969 136.6756,776.7302 130.8423,776.7302 L75.4256,776.7302 C69.5923,776.7302 63.759,770.8969 63.759,765.0635 L63.759,759.2302 C63.759,747.5635 75.4256,735.8969 87.0923,735.8969 C92.9256,741.7302 97.3006,741.7302 103.134,741.7302" fill="#D4F1EA" style="stroke:#181818;stroke-width:0.7292;"/><text fill="#000000" font-family="Arial" font-size="17.5" lengthAdjust="spacing" textLength="89.2346" x="58.5167" y="793.7033">Consumer</text></g><!--entity Merchant--><g class="entity" data-qualified-name="Merchant" data-source-line="28" id="ent0003"><ellipse cx="103.1324" cy="877.3552" fill="#D4F1EA" rx="23.3333" ry="23.3333" style="stroke:#181818;stroke-width:0.7292;"/><path d="M103.1324,906.5219 C108.9657,906.5219 113.3407,906.5219 119.174,900.6885 C130.8407,900.6885 142.5074,912.3552 142.5074,924.0219 L142.5074,929.8552 C142.5074,935.6885 136.674,941.5219 130.8407,941.5219 L75.424,941.5219 C69.5907,941.5219 63.7574,935.6885 63.7574,929.8552 L63.7574,924.0219 C63.7574,912.3552 75.424,900.6885 87.0907,900.6885 C92.924,906.5219 97.299,906.5219 103.1324,906.5219" fill="#D4F1EA" style="stroke:#181818;stroke-width:0.7292;"/><text fill="#000000" font-family="Arial" font-size="17.5" lengthAdjust="spacing" textLength="181.4856" x="12.3896" y="958.4949">Merchant Staff / POS</text></g><g class="entity" data-qualified-name="GMN17" data-source-line="48" id="ent0018"><path d="M366.8229,181.7448 L366.8229,219.5703 A8.75,8.75 0 0 0 375.5729,228.3203 L659.8881,228.3203 A8.75,8.75 0 0 0 668.6381,219.5703 L668.6381,187.5781 L654.0548,172.9948 L375.5729,172.9948 A8.75,8.75 0 0 0 366.8229,181.7448" fill="#FEFFDD" style="stroke:#181818;stroke-width:0.7292;"/><path d="M654.0548,172.9948 L654.0548,183.2031 A4.375,4.375 0 0 0 658.4298,187.5781 L668.6381,187.5781 L654.0548,172.9948" fill="#FEFFDD" style="stroke:#181818;stroke-width:1.4583;"/><text fill="#000000" font-family="Arial" font-size="17.5" lengthAdjust="spacing" textLength="187.6123" x="375.5729" y="196.5304">Official product term:</text><text fill="#000000" font-family="Arial" font-size="17.5" lengthAdjust="spacing" textLength="271.1902" x="375.5729" y="216.9014">User-presented Mode Payment</text></g><g class="entity" data-qualified-name="GMN20" data-source-line="53" id="ent0021"><path d="M345.5458,75.2865 L345.5458,113.112 A8.75,8.75 0 0 0 354.2958,121.862 L681.1733,121.862 A8.75,8.75 0 0 0 689.9233,113.112 L689.9233,81.1198 L675.3399,66.5365 L354.2958,66.5365 A8.75,8.75 0 0 0 345.5458,75.2865" fill="#FEFFDD" style="stroke:#181818;stroke-width:0.7292;"/><path d="M675.3399,66.5365 L675.3399,76.7448 A4.375,4.375 0 0 0 679.7149,81.1198 L689.9233,81.1198 L675.3399,66.5365" fill="#FEFFDD" style="stroke:#181818;stroke-width:1.4583;"/><text fill="#000000" font-family="Arial" font-size="17.5" lengthAdjust="spacing" textLength="187.6123" x="354.2958" y="90.072">Official product term:</text><text fill="#000000" font-family="Arial" font-size="17.5" lengthAdjust="spacing" textLength="313.7524" x="354.2958" y="110.4431">Merchant-presented Mode Payment</text></g><!--link Consumer to UC1--><g class="link" data-entity-1="ent0002" data-entity-2="ent0005" data-link-type="dependency" data-source-line="38" id="lnk10"><path d="M148.2625,759.7115 C216.5417,785.5969 341.5055,832.9539 427.5326,865.5622" fill="none" id="Consumer-to-UC1" style="stroke:#181818;stroke-width:1.4583;"/><polygon fill="#181818" points="435.7146,868.6635,425.5092,858.5569,428.8963,866.0791,421.3741,869.4662,435.7146,868.6635" style="stroke:#181818;stroke-width:1.4583;"/></g><!--link Merchant to UC1--><g class="link" data-entity-1="ent0003" data-entity-2="ent0005" data-link-type="dependency" data-source-line="39" id="lnk11"><path d="M194.4333,906.0406 C257.8271,904.699 334.2894,903.0612 401.1103,901.6467" fill="none" id="Merchant-to-UC1" style="stroke:#181818;stroke-width:1.4583;"/><polygon fill="#181818" points="409.8583,901.4615,396.6128,895.9072,402.5683,901.6158,396.8597,907.5713,409.8583,901.4615" style="stroke:#181818;stroke-width:1.4583;"/></g><!--link Consumer to UC2--><g class="link" data-entity-1="ent0002" data-entity-2="ent0006" data-link-type="dependency" data-source-line="40" id="lnk12"><path d="M148.2625,744.399 C206.1,746.0323 301.7118,748.7448 384.5597,751.0927" fill="none" id="Consumer-to-UC2" style="stroke:#181818;stroke-width:1.4583;"/><polygon fill="#181818" points="393.3062,751.3406,380.3518,745.1378,386.0175,751.1341,380.0213,756.7998,393.3062,751.3406" style="stroke:#181818;stroke-width:1.4583;"/></g><!--link Merchant to UC2--><g class="link" data-entity-1="ent0003" data-entity-2="ent0006" data-link-type="dependency" data-source-line="41" id="lnk13"><path d="M194.4333,874.5406 C263.7479,848.7573 350.9219,816.3267 419.8428,790.6892" fill="none" id="Merchant-to-UC2" style="stroke:#181818;stroke-width:1.4583;"/><polygon fill="#181818" points="428.0437,787.6385,413.7085,786.7472,421.2096,790.1807,417.776,797.6818,428.0437,787.6385" style="stroke:#181818;stroke-width:1.4583;"/></g><!--link UC2 to UC2A--><g class="link" data-entity-1="ent0006" data-entity-2="ent0007" data-link-type="dependency" data-source-line="43" id="lnk14"><path d="M397.4771,741.8177 C352.75,730.4573 306.2729,709.501 278.9583,670.9719 C266.7521,653.749 225.4958,533.7573 345.5458,401.9094 C374.8583,369.7094 413.3039,355.4391 450.8122,347.4183" fill="none" id="UC2-to-UC2A" style="stroke:#181818;stroke-width:1.4583;stroke-dasharray:10.2083,10.2083;"/><polygon fill="#181818" points="459.3687,345.5885,445.3141,342.6288,452.2383,347.1133,447.7537,354.0375,459.3687,345.5885" style="stroke:#181818;stroke-width:1.4583;"/><text fill="#000000" font-family="Arial" font-size="17.5" lengthAdjust="spacing" textLength="61.814" x="239.0875" y="666.7991">variant</text></g><!--link UC2 to UC2B--><g class="link" data-entity-1="ent0006" data-entity-2="ent0008" data-link-type="dependency" data-source-line="44" id="lnk15"><path d="M428.2917,721.8094 C339.9312,684.0385 225.2042,617.801 278.9583,544.0969 C309.1021,502.7677 353.2782,484.8632 401.5636,475.8361" fill="none" id="UC2-to-UC2B" style="stroke:#181818;stroke-width:1.4583;stroke-dasharray:10.2083,10.2083;"/><polygon fill="#181818" points="410.1646,474.2281,396.1911,470.9061,402.9971,475.5681,398.3351,482.3741,410.1646,474.2281" style="stroke:#181818;stroke-width:1.4583;"/><text fill="#000000" font-family="Arial" font-size="17.5" lengthAdjust="spacing" textLength="61.814" x="239.0875" y="561.7991">variant</text></g><!--link UC2 to UC2C--><g class="link" data-entity-1="ent0006" data-entity-2="ent0009" data-link-type="dependency" data-source-line="45" id="lnk16"><path d="M517.7312,707.576 C517.7312,685.1031 517.7312,667.2823 517.7312,645.8594" fill="none" id="UC2-to-UC2C" style="stroke:#181818;stroke-width:1.4583;stroke-dasharray:10.2083,10.2083;"/><polygon fill="#181818" points="517.7312,637.1094,511.8979,650.2344,517.7312,644.401,523.5646,650.2344,517.7312,637.1094" style="stroke:#181818;stroke-width:1.4583;"/><text fill="#000000" font-family="Arial" font-size="17.5" lengthAdjust="spacing" textLength="61.814" x="471.7937" y="679.122">variant</text></g><!--link UC1 to GMN17--><g class="link" data-entity-1="ent0005" data-entity-2="ent0018" data-link-type="association" data-source-line="48" id="lnk19"><path d="M414.3208,886.3531 C361.7187,874.001 302.1604,849.7635 269.7125,802.2219 C206.8437,710.1573 207.325,392.9406 269.7125,300.5552 C292.8271,266.3135 329.8542,243.8115 368.3104,229.024" fill="none" id="UC1-GMN17" style="stroke:#181818;stroke-width:1.4583;stroke-dasharray:10.2083,10.2083;"/></g><!--link UC2 to GMN20--><g class="link" data-entity-1="ent0006" data-entity-2="ent0021" data-link-type="association" data-source-line="53" id="lnk22"><path d="M409.2458,731.3177 C357.5917,714.0948 300.4979,684.8552 269.7125,635.9719 C214.9667,549.0406 209.7604,257.1115 269.7125,173.6802 C288.3062,147.7948 315.475,130.1344 345.0792,118.1469" fill="none" id="UC2-GMN20" style="stroke:#181818;stroke-width:1.4583;stroke-dasharray:10.2083,10.2083;"/></g><g class="legend" data-source-line="20"><rect fill="none" height="95.1107" rx="8.75" ry="8.75" style="stroke:#000000;stroke-width:1.4583;" width="309.7719" x="352.443" y="993.9927"/><text fill="#000000" font-family="Arial" font-size="16.0417" font-weight="bold" lengthAdjust="spacing" textLength="47.2242" x="365.3195" y="1019.0913">Color</text><text fill="#000000" font-family="Arial" font-size="16.0417" font-weight="bold" lengthAdjust="spacing" textLength="77.4903" x="423.7133" y="1019.0913">Meaning</text><rect fill="#D4F1EA" height="18.6735" style="stroke:none;stroke-width:1.4583;" width="58.3939" x="359.7347" y="1022.8745"/><text fill="#000000" font-family="Arial" font-size="16.0417" lengthAdjust="spacing" textLength="5.0992" x="359.7347" y="1037.7648">&#160;</text><text fill="#000000" font-family="Arial" font-size="16.0417" lengthAdjust="spacing" textLength="211.9725" x="423.2277" y="1037.7648">Your side / Merchant actor</text><rect fill="#CFE2FF" height="18.6735" style="stroke:none;stroke-width:1.4583;" width="58.3939" x="359.7347" y="1041.548"/><text fill="#000000" font-family="Arial" font-size="16.0417" lengthAdjust="spacing" textLength="5.0992" x="359.7347" y="1056.4383">&#160;</text><text fill="#000000" font-family="Arial" font-size="16.0417" lengthAdjust="spacing" textLength="226.5964" x="423.2277" y="1056.4383">Your ACQP domain use case</text><rect fill="#FCE5CD" height="18.6735" style="stroke:none;stroke-width:1.4583;" width="58.3939" x="359.7347" y="1060.2215"/><text fill="#000000" font-family="Arial" font-size="16.0417" lengthAdjust="spacing" textLength="5.0992" x="359.7347" y="1075.1118">&#160;</text><text fill="#000000" font-family="Arial" font-size="16.0417" lengthAdjust="spacing" textLength="171.7743" x="423.2277" y="1075.1118">Alipay+ assisted flow</text><line style="stroke:#000000;stroke-width:1.4583;" x1="359.7347" x2="654.9233" y1="1004.201" y2="1004.201"/><line style="stroke:#000000;stroke-width:1.4583;" x1="359.7347" x2="654.9233" y1="1022.8745" y2="1022.8745"/><line style="stroke:#000000;stroke-width:1.4583;" x1="359.7347" x2="654.9233" y1="1041.548" y2="1041.548"/><line style="stroke:#000000;stroke-width:1.4583;" x1="359.7347" x2="654.9233" y1="1060.2215" y2="1060.2215"/><line style="stroke:#000000;stroke-width:1.4583;" x1="359.7347" x2="654.9233" y1="1078.8951" y2="1078.8951"/><line style="stroke:#000000;stroke-width:1.4583;" x1="359.7347" x2="359.7347" y1="1004.201" y2="1078.8951"/><line style="stroke:#000000;stroke-width:1.4583;" x1="418.1285" x2="418.1285" y1="1004.201" y2="1078.8951"/><line style="stroke:#000000;stroke-width:1.4583;" x1="654.9233" x2="654.9233" y1="1004.201" y2="1078.8951"/></g><?plantuml-src TPHFRzf04CNl-ob6vDZIrbOIHL6B11iizK0XHHmg-RAnnx2AlMljheDeoNVlh8qTy--2pCoRtpw_7Tb9boFyL4Fhj45OY5s1oi7A8d11FpDHGgODZ7DPYjqd6FFd1SinS-0q6BdUE4YbmSH9hPXzbQeKHXJm8fBNjT6LIhdEQNoxaGvxVRiHgTvAjOPCvBRVgOSIRHGQ2C9U8oqb1BVV-XNCH9MxI2ltInG8OoD5Vhc_b7_n6EVyYt-qxdkj7DUeqezUqEk9X7AwJAmi9XJPvRcI0X5hNBeTnUtp4cgTu_aq_6C04srID4roDtUJ-yb3I5KFFjI2Xp088_P-Qgp1YorQNI1ZpOiqryJsFw2PfeSP2kN3txFzzvkdsoYOZaTx-ACh0rQc25z9OPADe4sekOsGHzCmYbgXtmH8TI6aykQXTb_h8Zwzuq-aQvT6M2kjmnIoN6z9GwOQQumr-07NobO5cW5feVq31skjgFEqT2BBoEHYlgm7kaOxmBg4ON2sspETeXtKGRUX3rPy6CIAjjuCIuEMPEJM2sF5AnhtRkn6RoqaLFmSgw8zqYP2sTh5YWTmoEW47SQgjNY6xxmt-EVV14-w8tlmy1fy7AkfScP7kNaWXUDaGg1sRWo76paTdCHgxXVjCDZULhfJeZWYJAuHUAmMHhu9Xt14gbVZ3CCxp3jZtIKFXoCV7Uk2Q0idYl1K4JBcK_aoQbxo4Tu4VG2KwrKd5wkyLsLAa_aNxIXmq5bzy3pBP4AV4YYDJgk4FdLeYaTsOJlQdV8R3PvqWHTUurrPYJFcVm00?></g></svg>