<?plantuml 1.2026.1?><svg xmlns="http://www.w3.org/2000/svg" xmlns:xlink="http://www.w3.org/1999/xlink" contentStyleType="text/css" data-diagram-type="DESCRIPTION" height="1009.1667px" preserveAspectRatio="none" style="width:686px;height:1009px;background:#FFFFFF;" version="1.1" viewBox="0 0 686 1009" width="686.875px" zoomAndPan="magnify"><title>Online Payment Use Case Map for Alipay+ ACQP</title><defs/><g><g class="title" data-source-line="1"><text fill="#000000" font-family="Arial" font-size="23.3333" font-weight="bold" lengthAdjust="spacing" textLength="635.6852" x="15.5178" y="36.2419">Online Payment Use Case Map for Alipay+ ACQP</text></g><!--cluster Online Payment / Cashier Payment--><g class="cluster" data-qualified-name="Online Payment . Cashier Payment" data-source-line="30" id="ent0004"><rect fill="none" height="567.2917" rx="8.75" ry="8.75" style="stroke:#181818;stroke-width:1.4583;" width="363.2417" x="315.1458" y="145.2427"/><text fill="#000000" font-family="Arial" font-size="17.5" font-weight="bold" lengthAdjust="spacing" textLength="342.3865" x="325.5734" y="164.4033">Online Payment / Cashier Payment</text></g><!--entity UCO1--><g class="entity" data-qualified-name="Online Payment . Cashier Payment.UCO1" data-source-line="31" id="ent0005"><ellipse cx="496.7713" cy="648.3725" fill="#CFE2FF" rx="121.338" ry="40.6193" style="stroke:#5B6B82;stroke-width:0.7292;"/><text fill="#18212F" font-family="Arial" font-size="16.0417" lengthAdjust="spacing" textLength="96.4693" x="448.5367" y="628.923">UC-Online-1</text><text fill="#18212F" font-family="Arial" font-size="16.0417" lengthAdjust="spacing" textLength="165.6177" x="413.9625" y="647.5965">User selects Alipay+</text><text fill="#18212F" font-family="Arial" font-size="16.0417" lengthAdjust="spacing" textLength="180.7821" x="406.3803" y="666.27">on merchant checkout</text></g><!--entity UCO1A--><g class="entity" data-qualified-name="Online Payment . Cashier Payment.UCO1A" data-source-line="32" id="ent0006"><ellipse cx="496.765" cy="229.8207" fill="#FCE5CD" rx="132.0358" ry="38.0425" style="stroke:#5B6B82;stroke-width:0.7292;"/><text fill="#18212F" font-family="Arial" font-size="16.0417" lengthAdjust="spacing" textLength="107.4431" x="443.0434" y="212.8486">UC-Online-1A</text><text fill="#18212F" font-family="Arial" font-size="16.0417" lengthAdjust="spacing" textLength="212.4189" x="390.5555" y="231.5221">Consult payment methods</text><text fill="#18212F" font-family="Arial" font-size="16.0417" lengthAdjust="spacing" textLength="166.8944" x="413.3178" y="250.1956">and render checkout</text></g><!--entity UCO1B--><g class="entity" data-qualified-name="Online Payment . Cashier Payment.UCO1B" data-source-line="33" id="ent0007"><ellipse cx="496.7695" cy="359.6181" fill="#CFE2FF" rx="125.6237" ry="40.8337" style="stroke:#5B6B82;stroke-width:0.7292;"/><text fill="#18212F" font-family="Arial" font-size="16.0417" lengthAdjust="spacing" textLength="107.4745" x="443.0323" y="340.505">UC-Online-1B</text><text fill="#18212F" font-family="Arial" font-size="16.0417" lengthAdjust="spacing" textLength="165.4924" x="414.0234" y="359.1785">Create payment and</text><text fill="#18212F" font-family="Arial" font-size="16.0417" lengthAdjust="spacing" textLength="186.3042" x="403.6174" y="377.852">open Alipay+ checkout</text></g><!--entity UCO1C--><g class="entity" data-qualified-name="Online Payment . Cashier Payment.UCO1C" data-source-line="34" id="ent0008"><ellipse cx="496.7656" cy="493.7894" fill="#CFE2FF" rx="98.6552" ry="42.005" style="stroke:#5B6B82;stroke-width:0.7292;"/><text fill="#18212F" font-family="Arial" font-size="16.0417" lengthAdjust="spacing" textLength="107.6703" x="442.9304" y="476.4667">UC-Online-1C</text><text fill="#18212F" font-family="Arial" font-size="16.0417" lengthAdjust="spacing" textLength="140.3489" x="426.5911" y="495.1402">Return result and</text><text fill="#18212F" font-family="Arial" font-size="16.0417" lengthAdjust="spacing" textLength="140.3568" x="426.5872" y="513.8137">query final status</text></g><!--entity User--><g class="entity" data-qualified-name="User" data-source-line="27" id="ent0002"><ellipse cx="92.1958" cy="595.8969" fill="#D4F1EA" rx="23.3333" ry="23.3333" style="stroke:#181818;stroke-width:0.7292;"/><path d="M92.1958,625.0635 C98.0292,625.0635 102.4042,625.0635 108.2375,619.2302 C119.9042,619.2302 131.5708,630.8969 131.5708,642.5635 L131.5708,648.3969 C131.5708,654.2302 125.7375,660.0635 119.9042,660.0635 L64.4875,660.0635 C58.6542,660.0635 52.8208,654.2302 52.8208,648.3969 L52.8208,642.5635 C52.8208,630.8969 64.4875,619.2302 76.1542,619.2302 C81.9875,625.0635 86.3625,625.0635 92.1958,625.0635" fill="#D4F1EA" style="stroke:#181818;stroke-width:0.7292;"/><text fill="#000000" font-family="Arial" font-size="17.5" lengthAdjust="spacing" textLength="39.8877" x="72.252" y="677.0366">User</text></g><!--entity Frontend--><g class="entity" data-qualified-name="Frontend" data-source-line="28" id="ent0003"><ellipse cx="92.1997" cy="756.3281" fill="#D4F1EA" rx="23.3333" ry="23.3333" style="stroke:#181818;stroke-width:0.7292;"/><path d="M92.1997,785.4948 C98.033,785.4948 102.408,785.4948 108.2414,779.6615 C119.908,779.6615 131.5747,791.3281 131.5747,802.9948 L131.5747,808.8281 C131.5747,814.6615 125.7414,820.4948 119.908,820.4948 L64.4914,820.4948 C58.658,820.4948 52.8247,814.6615 52.8247,808.8281 L52.8247,802.9948 C52.8247,791.3281 64.4914,779.6615 76.158,779.6615 C81.9914,785.4948 86.3664,785.4948 92.1997,785.4948" fill="#D4F1EA" style="stroke:#181818;stroke-width:0.7292;"/><text fill="#000000" font-family="Arial" font-size="17.5" lengthAdjust="spacing" textLength="166.8994" x="8.75" y="837.4679">Merchant Frontend</text><text fill="#000000" font-family="Arial" font-size="17.5" lengthAdjust="spacing" textLength="131.7029" x="8.75" y="857.8389">App / Web / H5</text></g><g class="entity" data-qualified-name="GMN14" data-source-line="44" id="ent0015"><path d="M328.7812,75.2865 L328.7812,113.112 A8.75,8.75 0 0 0 337.5312,121.862 L656.0261,121.862 A8.75,8.75 0 0 0 664.7761,113.112 L664.7761,81.1198 L650.1928,66.5365 L337.5312,66.5365 A8.75,8.75 0 0 0 328.7812,75.2865" fill="#FEFFDD" style="stroke:#181818;stroke-width:0.7292;"/><path d="M650.1928,66.5365 L650.1928,76.7448 A4.375,4.375 0 0 0 654.5678,81.1198 L664.7761,81.1198 L650.1928,66.5365" fill="#FEFFDD" style="stroke:#181818;stroke-width:1.4583;"/><text fill="#000000" font-family="Arial" font-size="17.5" lengthAdjust="spacing" textLength="187.6123" x="337.5312" y="90.072">Official product term:</text><text fill="#000000" font-family="Arial" font-size="17.5" lengthAdjust="spacing" textLength="305.3699" x="337.5312" y="110.4431">Online Payment / Cashier Payment</text></g><!--link User to UCO1--><g class="link" data-entity-1="ent0002" data-entity-2="ent0005" data-link-type="dependency" data-source-line="37" id="lnk9"><path d="M132.8979,628.6365 C188.8687,631.6844 285.2338,636.9247 367.8921,641.431" fill="none" id="User-to-UCO1" style="stroke:#181818;stroke-width:1.4583;"/><polygon fill="#181818" points="376.6292,641.9073,363.8412,635.3681,369.3483,641.5104,363.2061,647.0175,376.6292,641.9073" style="stroke:#181818;stroke-width:1.4583;"/></g><!--link Frontend to UCO1--><g class="link" data-entity-1="ent0003" data-entity-2="ent0005" data-link-type="dependency" data-source-line="38" id="lnk10"><path d="M175.9042,766.6531 C245.4521,740.899 336.3403,707.2457 405.6549,681.5791" fill="none" id="Frontend-to-UCO1" style="stroke:#181818;stroke-width:1.4583;"/><polygon fill="#181818" points="413.8604,678.5406,399.5265,677.6279,407.0225,681.0727,403.5778,688.5686,413.8604,678.5406" style="stroke:#181818;stroke-width:1.4583;"/></g><!--link UCO1 to UCO1A--><g class="link" data-entity-1="ent0005" data-entity-2="ent0006" data-link-type="dependency" data-source-line="39" id="lnk11"><path d="M378.9771,637.6344 C334.2938,627.1635 287.6125,607.0677 260.1667,568.8885 C248.3687,552.4969 179.1854,436.3115 303.4792,292.5344 C322.6417,270.3823 341.3821,258.7819 369.2071,249.4631" fill="none" id="UCO1-to-UCO1A" style="stroke:#181818;stroke-width:1.4583;stroke-dasharray:10.2083,10.2083;"/><polygon fill="#181818" points="377.5042,246.6844,363.2061,245.3211,370.59,249,366.9111,256.3838,377.5042,246.6844" style="stroke:#181818;stroke-width:1.4583;"/><text fill="#000000" font-family="Arial" font-size="17.5" lengthAdjust="spacing" textLength="63.4033" x="220.8646" y="564.7158">include</text></g><!--link UCO1 to UCO1B--><g class="link" data-entity-1="ent0005" data-entity-2="ent0007" data-link-type="dependency" data-source-line="40" id="lnk12"><path d="M403.1708,621.9135 C368.3604,608.2927 330.75,588.5615 303.4792,560.8677 C263.1854,519.9323 226.625,485.7344 260.1667,439.0969 C286.9708,401.8073 323.6495,383.8446 367.385,373.1696" fill="none" id="UCO1-to-UCO1B" style="stroke:#181818;stroke-width:1.4583;stroke-dasharray:10.2083,10.2083;"/><polygon fill="#181818" points="375.8854,371.0948,361.7515,368.54,368.8017,372.8238,364.5179,379.874,375.8854,371.0948" style="stroke:#181818;stroke-width:1.4583;"/><text fill="#000000" font-family="Arial" font-size="17.5" lengthAdjust="spacing" textLength="63.4033" x="220.8646" y="456.7991">include</text></g><!--link UCO1 to UCO1C--><g class="link" data-entity-1="ent0005" data-entity-2="ent0008" data-link-type="dependency" data-source-line="41" id="lnk13"><path d="M496.7667,607.3448 C496.7667,585.3531 496.7667,567.0219 496.7667,544.826" fill="none" id="UCO1-to-UCO1C" style="stroke:#181818;stroke-width:1.4583;stroke-dasharray:10.2083,10.2083;"/><polygon fill="#181818" points="496.7667,536.076,490.9333,549.201,496.7667,543.3677,502.6,549.201,496.7667,536.076" style="stroke:#181818;stroke-width:1.4583;"/><text fill="#000000" font-family="Arial" font-size="17.5" lengthAdjust="spacing" textLength="63.4033" x="450.1" y="578.5408">include</text></g><!--link UCO1 to GMN14--><g class="link" data-entity-1="ent0005" data-entity-2="ent0015" data-link-type="association" data-source-line="44" id="lnk16"><path d="M388.5146,629.599 C334.0021,614.0969 272.6354,585.9948 239.5604,535.3469 C156.6542,408.3552 154.4958,319.6594 239.5604,194.0969 C262.8063,159.7969 299.7021,137.2656 338.3771,122.4781" fill="none" id="UCO1-GMN14" style="stroke:#181818;stroke-width:1.4583;stroke-dasharray:10.2083,10.2083;"/></g><g class="legend" data-source-line="20"><rect fill="none" height="95.1107" rx="8.75" ry="8.75" style="stroke:#000000;stroke-width:1.4583;" width="394.6095" x="254.6114" y="886.2764"/><text fill="#000000" font-family="Arial" font-size="16.0417" font-weight="bold" lengthAdjust="spacing" textLength="47.2242" x="267.4878" y="911.375">Color</text><text fill="#000000" font-family="Arial" font-size="16.0417" font-weight="bold" lengthAdjust="spacing" textLength="77.4903" x="325.8817" y="911.375">Meaning</text><rect fill="#D4F1EA" height="18.6735" style="stroke:none;stroke-width:1.4583;" width="58.3939" x="261.903" y="915.1583"/><text fill="#000000" font-family="Arial" font-size="16.0417" lengthAdjust="spacing" textLength="5.0992" x="261.903" y="930.0485">&#160;</text><text fill="#000000" font-family="Arial" font-size="16.0417" lengthAdjust="spacing" textLength="304.5175" x="325.3961" y="930.0485">Your frontend / merchant-facing actor</text><rect fill="#CFE2FF" height="18.6735" style="stroke:none;stroke-width:1.4583;" width="58.3939" x="261.903" y="933.8318"/><text fill="#000000" font-family="Arial" font-size="16.0417" lengthAdjust="spacing" textLength="5.0992" x="261.903" y="948.722">&#160;</text><text fill="#000000" font-family="Arial" font-size="16.0417" lengthAdjust="spacing" textLength="200.0744" x="325.3961" y="948.722">Your ACQP-side use case</text><rect fill="#FCE5CD" height="18.6735" style="stroke:none;stroke-width:1.4583;" width="58.3939" x="261.903" y="952.5053"/><text fill="#000000" font-family="Arial" font-size="16.0417" lengthAdjust="spacing" textLength="5.0992" x="261.903" y="967.3955">&#160;</text><text fill="#000000" font-family="Arial" font-size="16.0417" lengthAdjust="spacing" textLength="311.4339" x="325.3961" y="967.3955">Alipay+ checkout or SDK assisted step</text><line style="stroke:#000000;stroke-width:1.4583;" x1="261.903" x2="641.9292" y1="896.4848" y2="896.4848"/><line style="stroke:#000000;stroke-width:1.4583;" x1="261.903" x2="641.9292" y1="915.1583" y2="915.1583"/><line style="stroke:#000000;stroke-width:1.4583;" x1="261.903" x2="641.9292" y1="933.8318" y2="933.8318"/><line style="stroke:#000000;stroke-width:1.4583;" x1="261.903" x2="641.9292" y1="952.5053" y2="952.5053"/><line style="stroke:#000000;stroke-width:1.4583;" x1="261.903" x2="641.9292" y1="971.1788" y2="971.1788"/><line style="stroke:#000000;stroke-width:1.4583;" x1="261.903" x2="261.903" y1="896.4848" y2="971.1788"/><line style="stroke:#000000;stroke-width:1.4583;" x1="320.2969" x2="320.2969" y1="896.4848" y2="971.1788"/><line style="stroke:#000000;stroke-width:1.4583;" x1="641.9292" x2="641.9292" y1="896.4848" y2="971.1788"/></g><?plantuml-src XLHTQzmm47pNhrWkZ-MQ-aX226t0vyGKIfgq8PJ2lIZs-YmYhrn99bnx-UzTMJx7-I8lmkneHhEpYxto6k6Ij2A4Axbfa3pSE8HCyd4XMwYCXLIhLcu-G9hzk18QAm_UW5NhsaEfB1PU6HBkJb4hhMpWLXPtQsiwAZEZcNvVAuyJtDMoDFUArb19xQP8JogC9RIGB2P0sIf83ZvDArZ9JllSaFyk6uJKAgbVnw_LNtmgvqFRZz3H1DAuHYeViMI2oS8R-xfYvx3Wo5xdjHo8NEErtt3O8Iz9QuqlsV1F02oDBT76vFOEbqVBumLNW_1GIuuNoI8N3y-DHNbvZyuqA4Hi98v9RBz0PFF71KeAuM_5zlFUsK6UdAUdM_XjEWkLvMS2QnyQj4KjoSyhMOJR_HEHa-NdYppVSS9Ip9qgCNG1VHlzhJmxFypE-DPkUueQYplJUM2TwxDl89rJpcC9VBJCuNUZPo7YOpDUH3lZUs4ZkV7eTGTU30OX7qolA6rRTluBR_dyUjWpT-385cF-C7ksz_jXwsl5JmsLMJ-GtN1cDzayCkR9YdfB3ZMhkLsBAp8q1ZVs6pl8BXCOadj3CrrHPiZnqlB2H4SD-jgKRaKoJ9BRu3TVoAOmPFs6xf9rBKgFewmCOPaMwSLiHj7bEsQp5Vr4trbYMxtbNlDFXtO3bIAfUQhITsuKp4R11o7wyERpqnuHuup6If_MnzEXlHDGLEYkn2VrvHlrR58NPBZjM-EzQS1KKVoogbJ1FmjehIcxWdzcQ9iJyTuoXFs4eFSV?></g></svg>