<?plantuml 1.2026.1?><svg xmlns="http://www.w3.org/2000/svg" xmlns:xlink="http://www.w3.org/1999/xlink" contentStyleType="text/css" data-diagram-type="STATE" height="961px" preserveAspectRatio="none" style="width:1037px;height:961px;background:#FFFFFF;" version="1.1" viewBox="0 0 1037 961" width="1037px" zoomAndPan="magnify"><title>Recommended Internal Order State Machine for Alipay+ Cashier Payment</title><defs/><g><g class="title" data-source-line="1"><text fill="#000000" font-family="sans-serif" font-size="14" font-weight="bold" lengthAdjust="spacing" textLength="583.5498" x="220.0354" y="22.9951">Recommended Internal Order State Machine for Alipay+ Cashier Payment</text></g><g><rect fill="#D5E8D4" height="50" rx="6" ry="6" style="stroke:#5B6B82;stroke-width:0.5;" width="85.3037" x="38.91" y="408.2969"/><line style="stroke:#5B6B82;stroke-width:0.5;" x1="38.91" x2="124.2137" y1="434.5938" y2="434.5938"/><text fill="#18212F" font-family="sans-serif" font-size="14" lengthAdjust="spacing" textLength="65.3037" x="48.91" y="426.292">SUCCESS</text></g><g><rect fill="#D5E8D4" height="50" rx="6" ry="6" style="stroke:#5B6B82;stroke-width:0.5;" width="97.752" x="200.68" y="822.2969"/><line style="stroke:#5B6B82;stroke-width:0.5;" x1="200.68" x2="298.432" y1="848.5938" y2="848.5938"/><text fill="#18212F" font-family="sans-serif" font-size="14" lengthAdjust="spacing" textLength="77.752" x="210.68" y="840.292">REFUNDED</text></g><g><rect fill="#D5E8D4" height="50" rx="6" ry="6" style="stroke:#5B6B82;stroke-width:0.5;" width="178.9082" x="185.1" y="695.2969"/><line style="stroke:#5B6B82;stroke-width:0.5;" x1="185.1" x2="364.0082" y1="721.5938" y2="721.5938"/><text fill="#18212F" font-family="sans-serif" font-size="14" lengthAdjust="spacing" textLength="158.9082" x="195.1" y="713.292">PARTIALLY_REFUNDED</text></g><g><rect fill="#F8CECC" height="50" rx="6" ry="6" style="stroke:#5B6B82;stroke-width:0.5;" width="69.1846" x="539.97" y="408.2969"/><line style="stroke:#5B6B82;stroke-width:0.5;" x1="539.97" x2="609.1546" y1="434.5938" y2="434.5938"/><text fill="#18212F" font-family="sans-serif" font-size="14" lengthAdjust="spacing" textLength="49.1846" x="549.97" y="426.292">FAILED</text></g><g><rect fill="#F8CECC" height="50" rx="6" ry="6" style="stroke:#5B6B82;stroke-width:0.5;" width="103.6719" x="357.72" y="488.2969"/><line style="stroke:#5B6B82;stroke-width:0.5;" x1="357.72" x2="461.3919" y1="514.5938" y2="514.5938"/><text fill="#18212F" font-family="sans-serif" font-size="14" lengthAdjust="spacing" textLength="83.6719" x="367.72" y="506.292">CANCELLED</text></g><g><rect fill="#FFF2CC" height="50" rx="6" ry="6" style="stroke:#5B6B82;stroke-width:0.5;" width="72.0215" x="484.55" y="266.2969"/><line style="stroke:#5B6B82;stroke-width:0.5;" x1="484.55" x2="556.5715" y1="292.5938" y2="292.5938"/><text fill="#18212F" font-family="sans-serif" font-size="14" lengthAdjust="spacing" textLength="52.0215" x="494.55" y="284.292">PAYING</text></g><g><rect fill="#FFF2CC" height="50" rx="6" ry="6" style="stroke:#5B6B82;stroke-width:0.5;" width="149.1172" x="7" y="568.2969"/><line style="stroke:#5B6B82;stroke-width:0.5;" x1="7" x2="156.1172" y1="594.5938" y2="594.5938"/><text fill="#18212F" font-family="sans-serif" font-size="14" lengthAdjust="spacing" textLength="129.1172" x="17" y="586.292">REFUND_PENDING</text></g><ellipse cx="759.56" cy="53.2969" fill="#222222" rx="10" ry="10" style="stroke:#222222;stroke-width:1;"/><g><rect fill="#DAE8FC" height="50" rx="6" ry="6" style="stroke:#5B6B82;stroke-width:0.5;" width="86.1035" x="716.51" y="124.2969"/><line style="stroke:#5B6B82;stroke-width:0.5;" x1="716.51" x2="802.6135" y1="150.5938" y2="150.5938"/><text fill="#18212F" font-family="sans-serif" font-size="14" lengthAdjust="spacing" textLength="66.1035" x="726.51" y="142.292">CREATED</text></g><ellipse cx="441.56" cy="944.2969" fill="none" rx="11" ry="11" style="stroke:#222222;stroke-width:1;"/><ellipse cx="441.56" cy="944.2969" fill="#222222" rx="6" ry="6" style="stroke:#222222;stroke-width:1;"/><g class="entity" data-qualified-name="GMN2" data-source-line="40" id="ent0003"><path d="M591.11,277.1669 L591.11,287.2969 L556.75,291.2969 L591.11,295.2969 L591.11,305.4325 A6,6 0 0 0 597.11,311.4325 L896.0138,311.4325 A6,6 0 0 0 902.0138,305.4325 L902.0138,281.1669 L892.0138,271.1669 L597.11,271.1669 A6,6 0 0 0 591.11,277.1669" fill="#FEFFDD" style="stroke:#181818;stroke-width:0.5;"/><path d="M892.0138,271.1669 L892.0138,278.1669 A3,3 0 0 0 895.0138,281.1669 L902.0138,281.1669 L892.0138,271.1669" fill="#FEFFDD" style="stroke:#181818;stroke-width:0.5;"/><text fill="#000000" font-family="sans-serif" font-size="13" lengthAdjust="spacing" textLength="263.9863" x="597.11" y="288.2338">Notification and polling both write to the</text><text fill="#000000" font-family="sans-serif" font-size="13" lengthAdjust="spacing" textLength="289.9038" x="597.11" y="303.3666">same order record and must be idempotent.</text></g><!--link *start* to CREATED--><g class="link" data-entity-1="ent0002" data-entity-2="ent0003" data-link-type="dependency" data-source-line="21" id="lnk4"><path d="M759.56,63.6569 C759.56,77.5869 759.56,98.2469 759.56,117.9469" fill="none" id="*start*-to-CREATED" style="stroke:#4A5568;stroke-width:1;"/><polygon fill="#4A5568" points="759.56,123.9469,763.56,114.9469,759.56,118.9469,755.56,114.9469,759.56,123.9469" style="stroke:#4A5568;stroke-width:1;"/></g><!--link CREATED to PAYING--><g class="link" data-entity-1="ent0003" data-entity-2="ent0007" data-link-type="dependency" data-source-line="22" id="lnk5"><path d="M717.93,174.6869 C672.46,201.3169 605.5175,240.5347 562.1975,265.9047" fill="none" id="CREATED-to-PAYING" style="stroke:#4A5568;stroke-width:1;"/><polygon fill="#4A5568" points="557.02,268.9369,566.8076,267.8403,561.3346,266.4101,562.7648,260.937,557.02,268.9369" style="stroke:#4A5568;stroke-width:1;"/><text fill="#000000" font-family="sans-serif" font-size="13" lengthAdjust="spacing" textLength="87.9023" x="692.2224" y="217.3638">pay accepted</text><text fill="#000000" font-family="sans-serif" font-size="13" lengthAdjust="spacing" textLength="149.2271" x="661.56" y="232.4966">PAYMENT_IN_PROCESS</text></g><!--link CREATED to FAILED--><g class="link" data-entity-1="ent0003" data-entity-2="ent0005" data-link-type="dependency" data-source-line="23" id="lnk6"><path d="M802.93,172.4869 C877.56,213.4569 1016.31,303.6169 951.56,378.2969 C907.38,429.2569 700.2099,433.3194 615.4399,432.8594" fill="none" id="CREATED-to-FAILED" style="stroke:#4A5568;stroke-width:1;"/><polygon fill="#4A5568" points="609.44,432.8269,618.4182,436.8757,614.4399,432.854,618.4616,428.8758,609.44,432.8269" style="stroke:#4A5568;stroke-width:1;"/><text fill="#000000" font-family="sans-serif" font-size="13" lengthAdjust="spacing" textLength="64.0605" x="965.56" y="295.8638">pay failed</text></g><!--link PAYING to SUCCESS--><g class="link" data-entity-1="ent0007" data-entity-2="ent0002" data-link-type="dependency" data-source-line="25" id="lnk7"><path d="M484.4,294.0169 C383.66,299.1569 105.36,316.0169 78.56,346.2969 C63.9,362.8569 65.5756,383.2309 70.9556,402.3609" fill="none" id="PAYING-to-SUCCESS" style="stroke:#4A5568;stroke-width:1;"/><polygon fill="#4A5568" points="72.58,408.1369,73.994,398.3901,71.2263,403.3236,66.2928,400.5559,72.58,408.1369" style="stroke:#4A5568;stroke-width:1;"/><text fill="#000000" font-family="sans-serif" font-size="13" lengthAdjust="spacing" textLength="201.5381" x="79.56" y="359.3638">notifyPayment/inquiryPayment</text><text fill="#000000" font-family="sans-serif" font-size="13" lengthAdjust="spacing" textLength="117.8062" x="121.426" y="374.4966">paymentResult=S</text></g><!--link PAYING to FAILED--><g class="link" data-entity-1="ent0007" data-entity-2="ent0005" data-link-type="dependency" data-source-line="26" id="lnk8"><path d="M556.92,310.0269 C562.42,312.3369 568.08,314.5169 573.56,316.2969 C636.14,336.6569 677,295.2669 718.56,346.2969 C752.57,388.0669 668.085,413.1111 615.355,424.4911" fill="none" id="PAYING-to-FAILED" style="stroke:#4A5568;stroke-width:1;"/><polygon fill="#4A5568" points="609.49,425.7569,619.1313,427.7682,614.3775,424.7021,617.4436,419.9483,609.49,425.7569" style="stroke:#4A5568;stroke-width:1;"/><text fill="#000000" font-family="sans-serif" font-size="13" lengthAdjust="spacing" textLength="201.5381" x="734.247" y="359.3638">notifyPayment/inquiryPayment</text><text fill="#000000" font-family="sans-serif" font-size="13" lengthAdjust="spacing" textLength="216.9121" x="726.56" y="374.4966">paymentResult=F and not closed</text></g><!--link PAYING to FAILED--><g class="link" data-entity-1="ent0007" data-entity-2="ent0005" data-link-type="dependency" data-source-line="28" id="lnk10"><path d="M512.43,316.7269 C507.93,334.5669 504.82,358.8969 513.56,378.2969 C519.19,390.8069 524.6796,397.7712 535.0796,406.3412" fill="none" id="PAYING-to-FAILED-1" style="stroke:#4A5568;stroke-width:1;"/><polygon fill="#4A5568" points="539.71,410.1569,535.3081,401.3465,535.8513,406.9772,530.2206,407.5204,539.71,410.1569" style="stroke:#4A5568;stroke-width:1;"/><text fill="#000000" font-family="sans-serif" font-size="13" lengthAdjust="spacing" textLength="195.8188" x="514.56" y="366.8638">payment expired and final fail</text></g><!--link PAYING to CANCELLED--><g class="link" data-entity-1="ent0007" data-entity-2="ent0006" data-link-type="dependency" data-source-line="27" id="lnk9"><path d="M484.32,291.6469 C442.66,293.1069 375.87,302.6569 343.56,346.2969 C310.71,390.6669 351.4724,449.0948 381.7824,483.3248" fill="none" id="PAYING-to-CANCELLED" style="stroke:#4A5568;stroke-width:1;"/><polygon fill="#4A5568" points="385.76,487.8169,382.7883,478.4271,382.4453,484.0735,376.7989,483.7305,385.76,487.8169" style="stroke:#4A5568;stroke-width:1;"/><text fill="#000000" font-family="sans-serif" font-size="13" lengthAdjust="spacing" textLength="154.5908" x="344.56" y="366.8638">cancelPayment success</text></g><!--link SUCCESS to REFUND_PENDING--><g class="link" data-entity-1="ent0002" data-entity-2="ent0008" data-link-type="dependency" data-source-line="30" id="lnk11"><path d="M81.56,458.6369 C81.56,488.3269 81.56,532.2269 81.56,561.9269" fill="none" id="SUCCESS-to-REFUND_PENDING" style="stroke:#4A5568;stroke-width:1;"/><polygon fill="#4A5568" points="81.56,567.9269,85.56,558.9269,81.56,562.9269,77.56,558.9269,81.56,567.9269" style="stroke:#4A5568;stroke-width:1;"/><text fill="#000000" font-family="sans-serif" font-size="13" lengthAdjust="spacing" textLength="112.7661" x="82.56" y="517.8638">refund submitted</text></g><!--link REFUND_PENDING to REFUNDED--><g class="link" data-entity-1="ent0008" data-entity-2="ent0003" data-link-type="dependency" data-source-line="31" id="lnk12"><path d="M64.97,618.5769 C45.76,649.9969 19.75,705.4169 44.56,745.2969 C78.41,799.7069 145.2948,824.2602 194.3848,836.0102" fill="none" id="REFUND_PENDING-to-REFUNDED" style="stroke:#4A5568;stroke-width:1;"/><polygon fill="#4A5568" points="200.22,837.4069,192.3984,831.4217,195.3574,836.243,190.5361,839.202,200.22,837.4069" style="stroke:#4A5568;stroke-width:1;"/><text fill="#000000" font-family="sans-serif" font-size="13" lengthAdjust="spacing" textLength="121.8052" x="45.56" y="724.8638">full refund success</text></g><!--link REFUND_PENDING to PARTIALLY_REFUNDED--><g class="link" data-entity-1="ent0008" data-entity-2="ent0004" data-link-type="dependency" data-source-line="32" id="lnk13"><path d="M119.23,618.6969 C153.24,640.7169 197.9739,669.6953 231.9439,691.6953" fill="none" id="REFUND_PENDING-to-PARTIALLY_REFUNDED" style="stroke:#4A5568;stroke-width:1;"/><polygon fill="#4A5568" points="236.98,694.9569,231.6002,686.7072,232.7832,692.2389,227.2515,693.422,236.98,694.9569" style="stroke:#4A5568;stroke-width:1;"/><text fill="#000000" font-family="sans-serif" font-size="13" lengthAdjust="spacing" textLength="143.6157" x="191.56" y="661.3638">partial refund success</text></g><!--link PARTIALLY_REFUNDED to REFUNDED--><g class="link" data-entity-1="ent0004" data-entity-2="ent0003" data-link-type="dependency" data-source-line="33" id="lnk14"><path d="M258.83,745.5869 C253.88,754.5569 249.06,765.0369 246.56,775.2969 C242.85,790.5169 242.8507,802.1589 244.5007,816.0189" fill="none" id="PARTIALLY_REFUNDED-to-REFUNDED" style="stroke:#4A5568;stroke-width:1;"/><polygon fill="#4A5568" points="245.21,821.9769,248.118,812.5671,244.6189,817.0119,240.1741,813.5128,245.21,821.9769" style="stroke:#4A5568;stroke-width:1;"/><text fill="#000000" font-family="sans-serif" font-size="13" lengthAdjust="spacing" textLength="167.6924" x="247.56" y="788.3638">remaining refund success</text></g><!--link FAILED to *end*--><g class="link" data-entity-1="ent0005" data-entity-2="ent0015" data-link-type="dependency" data-source-line="35" id="lnk16"><path d="M566.99,458.6569 C558.1,489.4569 544.56,544.2769 544.56,592.2969 C544.56,592.2969 544.56,592.2969 544.56,848.2969 C544.56,898.4069 483.4477,927.2011 457.3977,937.3911" fill="none" id="FAILED-to-*end*" style="stroke:#4A5568;stroke-width:1;"/><polygon fill="#4A5568" points="451.81,939.5769,461.6487,940.0234,456.4664,937.7554,458.7344,932.5731,451.81,939.5769" style="stroke:#4A5568;stroke-width:1;"/></g><!--link CANCELLED to *end*--><g class="link" data-entity-1="ent0006" data-entity-2="ent0015" data-link-type="dependency" data-source-line="36" id="lnk17"><path d="M418.56,538.7169 C428.02,566.6169 441.56,613.8569 441.56,655.7969 C441.56,655.7969 441.56,655.7969 441.56,848.2969 C441.56,879.1369 441.56,909.6169 441.56,927.0369" fill="none" id="CANCELLED-to-*end*" style="stroke:#4A5568;stroke-width:1;"/><polygon fill="#4A5568" points="441.56,933.0369,445.56,924.0369,441.56,928.0369,437.56,924.0369,441.56,933.0369" style="stroke:#4A5568;stroke-width:1;"/></g><!--link REFUNDED to *end*--><g class="link" data-entity-1="ent0003" data-entity-2="ent0015" data-link-type="dependency" data-source-line="37" id="lnk18"><path d="M298.51,872.5169 C343.84,894.9469 402.3819,923.9168 426.4819,935.8368" fill="none" id="REFUNDED-to-*end*" style="stroke:#4A5568;stroke-width:1;"/><polygon fill="#4A5568" points="431.86,938.4969,425.5662,930.9214,427.3782,936.2802,422.0195,938.0922,431.86,938.4969" style="stroke:#4A5568;stroke-width:1;"/></g><?plantuml-src bLDDRzim3BthLn3eRKCt96WAO-W2E8uz14ZT84aFnJe4YYt7GcN9asLaGR7_FifM4kUZXvqiatoFv2Dfk14CvYnHHS5aobAOICEqf0AUTCeqB0mr31vfadF985CQVC5BkliC0QroZX4pkaEe8TKRboNLj80rJTusMjKo3PH0n3RdXdNyLKvJjULo0naLLTVJW1Ab9VBs-Xs7hxNQjcmtT_vWSEzr-PeQtmd0IDcYNTnWT3_o-jPwLi_Ds0-zA41FfAHnjfxNx_KZylUSz-6XgfE4LTLmsAQu81k4tlZk6Z2ZNDIQVGICl20CWcl0BTKIvVaG64Nz1aX-Vle5jxT32EQXlmp7n7qRsyn_cSG_u1lWj81Y2wLXwQj4ysCOBrUJU3MRFmNXOd62Ylp959yjoZR0Ka8SbVKldWEBmG2f3CzsRlfVkVnTSxt_VSL-ciUSLRKmtnTTYaEA_s68WChK8Y0HgiAYEeI17mVXjELCg4oOS2JWHdSrk-C7zgVa6XVVycVSRhvjcv1zfnOq3wFdUBoQXV6urLIp3EU1_Ek26zILd4KSGKskh1RYY6bhkeAO-VFbn9zENrOTB6w6uVG2VYNsBAbc1ULsZywXn6bWut63o56_lUM4qXe8Aiz0yqrkG6LkjqXi1yWJQhYIZNwb4i8cN2kJmrRZsODHO7AySLemQAuJgy4BR_Kkwih0cW5FML5Y1cc-4DREcH7ItlL-3fr3T9v3bPUkA-fS1ZaPEeVg74T1BdrkbJf7UbBDOPwTW7y0?></g></svg>