<?plantuml 1.2026.1?><svg xmlns="http://www.w3.org/2000/svg" xmlns:xlink="http://www.w3.org/1999/xlink" contentStyleType="text/css" data-diagram-type="SEQUENCE" height="842px" preserveAspectRatio="none" style="width:1274px;height:842px;background:#FFFFFF;" version="1.1" viewBox="0 0 1274 842" width="1274px" zoomAndPan="magnify"><title>Payment Result Reconciliation - Notification and Inquiry</title><defs/><g><text fill="#000000" font-family="sans-serif" font-size="14" font-weight="bold" lengthAdjust="spacing" textLength="444.042" x="411.3557" y="27.9951">Payment Result Reconciliation - Notification and Inquiry</text><rect fill="none" height="90.2031" rx="6" ry="6" style="stroke:#000000;stroke-width:1.5;" width="389.3784" x="521.8652" y="251.125"/><rect fill="none" height="133.6641" rx="6" ry="6" style="stroke:#000000;stroke-width:1.5;" width="1048.106" x="10" y="384.4609"/><g class="participant-lifeline" data-entity-uid="part1" data-qualified-name="AP" id="part1-lifeline"><g><title>Alipay. Backend</title><rect fill="#000000" fill-opacity="0.00000" height="517.9297" width="8" x="82.8247" y="104.5938"/><line style="stroke:#181818;stroke-width:0.5;stroke-dasharray:5,5;" x1="86" x2="86" y1="104.5938" y2="622.5234"/></g></g><g class="participant-lifeline" data-entity-uid="part2" data-qualified-name="CB" id="part2-lifeline"><g><title>Callback API</title><rect fill="#000000" fill-opacity="0.00000" height="517.9297" width="8" x="312.5151" y="104.5938"/><line style="stroke:#181818;stroke-width:0.5;stroke-dasharray:5,5;" x1="316.5137" x2="316.5137" y1="104.5938" y2="622.5234"/></g></g><g class="participant-lifeline" data-entity-uid="part3" data-qualified-name="OS" id="part3-lifeline"><g><title>Order Service</title><rect fill="#000000" fill-opacity="0.00000" height="517.9297" width="8" x="582.9766" y="104.5938"/><line style="stroke:#181818;stroke-width:0.5;stroke-dasharray:5,5;" x1="586.8652" x2="586.8652" y1="104.5938" y2="622.5234"/></g></g><g class="participant-lifeline" data-entity-uid="part4" data-qualified-name="DB" id="part4-lifeline"><g><title>Order DB</title><rect fill="#000000" fill-opacity="0.00000" height="517.9297" width="8" x="861.8105" y="104.5938"/><line style="stroke:#181818;stroke-width:0.5;stroke-dasharray:5,5;" x1="865.3774" x2="865.3774" y1="104.5938" y2="622.5234"/></g></g><g class="participant-lifeline" data-entity-uid="part5" data-qualified-name="Poller" id="part5-lifeline"><g><title>Poller . Scheduler</title><rect fill="#000000" fill-opacity="0.00000" height="517.9297" width="8" x="975.6748" y="104.5938"/><line style="stroke:#181818;stroke-width:0.5;stroke-dasharray:5,5;" x1="979.2437" x2="979.2437" y1="104.5938" y2="622.5234"/></g></g><g class="participant-lifeline" data-entity-uid="part6" data-qualified-name="Client" id="part6-lifeline"><g><title>Your Mobile App . Frontend</title><rect fill="#000000" fill-opacity="0.00000" height="517.9297" width="8" x="1156.4297" y="104.5938"/><line style="stroke:#181818;stroke-width:0.5;stroke-dasharray:5,5;" x1="1160.106" x2="1160.106" y1="104.5938" y2="622.5234"/></g></g><g class="participant participant-head" data-entity-uid="part1" data-qualified-name="AP" id="part1-head"><rect fill="#F4CCCC" height="30.2969" rx="6" ry="6" style="stroke:#5B6B82;stroke-width:0.5;" width="133.6494" x="20" y="73.2969"/><text fill="#000000" font-family="sans-serif" font-size="14" lengthAdjust="spacing" textLength="119.6494" x="27" y="93.292">Alipay+ Backend</text></g><g class="participant participant-tail" data-entity-uid="part1" data-qualified-name="AP" id="part1-tail"><rect fill="#F4CCCC" height="30.2969" rx="6" ry="6" style="stroke:#5B6B82;stroke-width:0.5;" width="133.6494" x="20" y="621.5234"/><text fill="#000000" font-family="sans-serif" font-size="14" lengthAdjust="spacing" textLength="119.6494" x="27" y="641.5186">Alipay+ Backend</text></g><g class="participant participant-head" data-entity-uid="part2" data-qualified-name="CB" id="part2-head"><rect fill="#CFE2FF" height="30.2969" rx="6" ry="6" style="stroke:#5B6B82;stroke-width:0.5;" width="100.0029" x="266.5137" y="73.2969"/><text fill="#000000" font-family="sans-serif" font-size="14" lengthAdjust="spacing" textLength="86.0029" x="273.5137" y="93.292">Callback API</text></g><g class="participant participant-tail" data-entity-uid="part2" data-qualified-name="CB" id="part2-tail"><rect fill="#CFE2FF" height="30.2969" rx="6" ry="6" style="stroke:#5B6B82;stroke-width:0.5;" width="100.0029" x="266.5137" y="621.5234"/><text fill="#000000" font-family="sans-serif" font-size="14" lengthAdjust="spacing" textLength="86.0029" x="273.5137" y="641.5186">Callback API</text></g><g class="participant participant-head" data-entity-uid="part3" data-qualified-name="OS" id="part3-head"><rect fill="#CFE2FF" height="30.2969" rx="6" ry="6" style="stroke:#5B6B82;stroke-width:0.5;" width="110.2227" x="531.8652" y="73.2969"/><text fill="#000000" font-family="sans-serif" font-size="14" lengthAdjust="spacing" textLength="96.2227" x="538.8652" y="93.292">Order Service</text></g><g class="participant participant-tail" data-entity-uid="part3" data-qualified-name="OS" id="part3-tail"><rect fill="#CFE2FF" height="30.2969" rx="6" ry="6" style="stroke:#5B6B82;stroke-width:0.5;" width="110.2227" x="531.8652" y="621.5234"/><text fill="#000000" font-family="sans-serif" font-size="14" lengthAdjust="spacing" textLength="96.2227" x="538.8652" y="641.5186">Order Service</text></g><g class="participant participant-head" data-entity-uid="part4" data-qualified-name="DB" id="part4-head"><text fill="#000000" font-family="sans-serif" font-size="14" lengthAdjust="spacing" textLength="64.8662" x="830.3774" y="101.292">Order DB</text><path d="M847.8105,52.2969 C847.8105,42.2969 865.8105,42.2969 865.8105,42.2969 C865.8105,42.2969 883.8105,42.2969 883.8105,52.2969 L883.8105,78.2969 C883.8105,88.2969 865.8105,88.2969 865.8105,88.2969 C865.8105,88.2969 847.8105,88.2969 847.8105,78.2969 L847.8105,52.2969" fill="#F5F5F5" style="stroke:#181818;stroke-width:0.5;"/><path d="M847.8105,52.2969 C847.8105,62.2969 865.8105,62.2969 865.8105,62.2969 C865.8105,62.2969 883.8105,62.2969 883.8105,52.2969" fill="none" style="stroke:#181818;stroke-width:0.5;"/></g><g class="participant participant-tail" data-entity-uid="part4" data-qualified-name="DB" id="part4-tail"><text fill="#000000" font-family="sans-serif" font-size="14" lengthAdjust="spacing" textLength="64.8662" x="830.3774" y="634.5186">Order DB</text><path d="M847.8105,647.8203 C847.8105,637.8203 865.8105,637.8203 865.8105,637.8203 C865.8105,637.8203 883.8105,637.8203 883.8105,647.8203 L883.8105,673.8203 C883.8105,683.8203 865.8105,683.8203 865.8105,683.8203 C865.8105,683.8203 847.8105,683.8203 847.8105,673.8203 L847.8105,647.8203" fill="#F5F5F5" style="stroke:#181818;stroke-width:0.5;"/><path d="M847.8105,647.8203 C847.8105,657.8203 865.8105,657.8203 865.8105,657.8203 C865.8105,657.8203 883.8105,657.8203 883.8105,647.8203" fill="none" style="stroke:#181818;stroke-width:0.5;"/></g><g class="participant participant-head" data-entity-uid="part5" data-qualified-name="Poller" id="part5-head"><rect fill="#CFE2FF" height="30.2969" rx="6" ry="6" style="stroke:#5B6B82;stroke-width:0.5;" width="136.8623" x="911.2437" y="73.2969"/><text fill="#000000" font-family="sans-serif" font-size="14" lengthAdjust="spacing" textLength="122.8623" x="918.2437" y="93.292">Poller / Scheduler</text></g><g class="participant participant-tail" data-entity-uid="part5" data-qualified-name="Poller" id="part5-tail"><rect fill="#CFE2FF" height="30.2969" rx="6" ry="6" style="stroke:#5B6B82;stroke-width:0.5;" width="136.8623" x="911.2437" y="621.5234"/><text fill="#000000" font-family="sans-serif" font-size="14" lengthAdjust="spacing" textLength="122.8623" x="918.2437" y="641.5186">Poller / Scheduler</text></g><g class="participant participant-head" data-entity-uid="part6" data-qualified-name="Client" id="part6-head"><rect fill="#D4F1EA" height="30.2969" rx="6" ry="6" style="stroke:#5B6B82;stroke-width:0.5;" width="204.6475" x="1058.106" y="73.2969"/><text fill="#000000" font-family="sans-serif" font-size="14" lengthAdjust="spacing" textLength="190.6475" x="1065.106" y="93.292">Your Mobile App / Frontend</text></g><g class="participant participant-tail" data-entity-uid="part6" data-qualified-name="Client" id="part6-tail"><rect fill="#D4F1EA" height="30.2969" rx="6" ry="6" style="stroke:#5B6B82;stroke-width:0.5;" width="204.6475" x="1058.106" y="621.5234"/><text fill="#000000" font-family="sans-serif" font-size="14" lengthAdjust="spacing" textLength="190.6475" x="1065.106" y="641.5186">Your Mobile App / Frontend</text></g><g class="message" data-entity-1="part1" data-entity-2="part2" id="msg1"><polygon fill="#C0392B" points="304.5151,131.7266,314.5151,135.7266,304.5151,139.7266,308.5151,135.7266" style="stroke:#C0392B;stroke-width:1;"/><line style="stroke:#C0392B;stroke-width:1;" x1="86.8247" x2="310.5151" y1="135.7266" y2="135.7266"/><text fill="#000000" font-family="sans-serif" font-size="13" lengthAdjust="spacing" textLength="24.7939" x="98.8247" y="130.6606">S01</text><text fill="#000000" font-family="sans-serif" font-size="13" lengthAdjust="spacing" textLength="176.8965" x="127.6187" y="130.6606">notifyPayment(final status)</text></g><g class="message" data-entity-1="part2" data-entity-2="part2" id="msg2"><line style="stroke:#4A5568;stroke-width:1;" x1="316.5151" x2="358.5151" y1="164.8594" y2="164.8594"/><line style="stroke:#4A5568;stroke-width:1;" x1="358.5151" x2="358.5151" y1="164.8594" y2="177.8594"/><line style="stroke:#4A5568;stroke-width:1;" x1="317.5151" x2="358.5151" y1="177.8594" y2="177.8594"/><polygon fill="#4A5568" points="327.5151,173.8594,317.5151,177.8594,327.5151,181.8594,323.5151,177.8594" style="stroke:#4A5568;stroke-width:1;"/><text fill="#000000" font-family="sans-serif" font-size="13" lengthAdjust="spacing" textLength="24.7939" x="323.5151" y="159.7935">S02</text><text fill="#000000" font-family="sans-serif" font-size="13" lengthAdjust="spacing" textLength="119.0503" x="352.3091" y="159.7935">Validate signature</text></g><g class="message" data-entity-1="part2" data-entity-2="part3" id="msg3"><polygon fill="#4A5568" points="574.9766,202.9922,584.9766,206.9922,574.9766,210.9922,578.9766,206.9922" style="stroke:#4A5568;stroke-width:1;"/><line style="stroke:#4A5568;stroke-width:1;" x1="316.5151" x2="580.9766" y1="206.9922" y2="206.9922"/><text fill="#000000" font-family="sans-serif" font-size="13" lengthAdjust="spacing" textLength="24.7939" x="328.5151" y="201.9263">S03</text><text fill="#000000" font-family="sans-serif" font-size="13" lengthAdjust="spacing" textLength="217.6675" x="357.3091" y="201.9263">Process notification idempotently</text></g><g class="message" data-entity-1="part3" data-entity-2="part4" id="msg4"><polygon fill="#4A5568" points="853.8105,232.125,863.8105,236.125,853.8105,240.125,857.8105,236.125" style="stroke:#4A5568;stroke-width:1;"/><line style="stroke:#4A5568;stroke-width:1;" x1="586.9766" x2="859.8105" y1="236.125" y2="236.125"/><text fill="#000000" font-family="sans-serif" font-size="13" lengthAdjust="spacing" textLength="24.7939" x="598.9766" y="231.0591">S04</text><text fill="#000000" font-family="sans-serif" font-size="13" lengthAdjust="spacing" textLength="226.04" x="627.7705" y="231.0591">Insert event by paymentRequestId</text></g><path d="M527.8652,251.125 L586.3081,251.125 L586.3081,258.2578 L576.3081,268.2578 L521.8652,268.2578 L521.8652,257.125 A6,6 0 0 1 527.8652,251.125" fill="#EEEEEE" style="stroke:#000000;stroke-width:1.5;"/><rect fill="none" height="90.2031" rx="6" ry="6" style="stroke:#000000;stroke-width:1.5;" width="389.3784" x="521.8652" y="251.125"/><text fill="#000000" font-family="sans-serif" font-size="13" font-weight="bold" lengthAdjust="spacing" textLength="19.4429" x="536.8652" y="264.1919">alt</text><text fill="#000000" font-family="sans-serif" font-size="11" font-weight="bold" lengthAdjust="spacing" textLength="125.1948" x="601.3081" y="263.3354">[Order not final yet]</text><g class="message" data-entity-1="part3" data-entity-2="part4" id="msg5"><polygon fill="#4A5568" points="853.8105,285.3906,863.8105,289.3906,853.8105,293.3906,857.8105,289.3906" style="stroke:#4A5568;stroke-width:1;"/><line style="stroke:#4A5568;stroke-width:1;" x1="586.9766" x2="859.8105" y1="289.3906" y2="289.3906"/><text fill="#000000" font-family="sans-serif" font-size="13" lengthAdjust="spacing" textLength="24.7939" x="610.4531" y="284.3247">S05</text><text fill="#000000" font-family="sans-serif" font-size="13" lengthAdjust="spacing" textLength="203.0869" x="639.2471" y="284.3247">Mark order SUCCESS or FAILED</text></g><line style="stroke:#000000;stroke-width:1;stroke-dasharray:2,2;" x1="521.8652" x2="911.2437" y1="298.3906" y2="298.3906"/><text fill="#000000" font-family="sans-serif" font-size="11" font-weight="bold" lengthAdjust="spacing" textLength="127.3755" x="526.8652" y="308.6011">[Order already final]</text><g class="message" data-entity-1="part3" data-entity-2="part4" id="msg6"><polygon fill="#4A5568" points="853.8105,329.3281,863.8105,333.3281,853.8105,337.3281,857.8105,333.3281" style="stroke:#4A5568;stroke-width:1;"/><line style="stroke:#4A5568;stroke-width:1;" x1="586.9766" x2="859.8105" y1="333.3281" y2="333.3281"/><text fill="#000000" font-family="sans-serif" font-size="13" lengthAdjust="spacing" textLength="24.7939" x="630.3499" y="328.2622">S06</text><text fill="#000000" font-family="sans-serif" font-size="13" lengthAdjust="spacing" textLength="163.2935" x="659.1438" y="328.2622">Ignore duplicate callback</text></g><g class="message" data-entity-1="part2" data-entity-2="part1" id="msg7"><polygon fill="#C0392B" points="97.8247,365.4609,87.8247,369.4609,97.8247,373.4609,93.8247,369.4609" style="stroke:#C0392B;stroke-width:1;"/><line style="stroke:#C0392B;stroke-width:1;stroke-dasharray:2,2;" x1="91.8247" x2="315.5151" y1="369.4609" y2="369.4609"/><text fill="#000000" font-family="sans-serif" font-size="13" lengthAdjust="spacing" textLength="24.7939" x="132.9116" y="364.395">S07</text><text fill="#000000" font-family="sans-serif" font-size="13" lengthAdjust="spacing" textLength="108.7227" x="161.7056" y="364.395">Return SUCCESS</text></g><path d="M16,384.4609 L86.624,384.4609 L86.624,391.5938 L76.624,401.5938 L10,401.5938 L10,390.4609 A6,6 0 0 1 16,384.4609" fill="#EEEEEE" style="stroke:#000000;stroke-width:1.5;"/><rect fill="none" height="133.6641" rx="6" ry="6" style="stroke:#000000;stroke-width:1.5;" width="1048.106" x="10" y="384.4609"/><text fill="#000000" font-family="sans-serif" font-size="13" font-weight="bold" lengthAdjust="spacing" textLength="31.624" x="25" y="397.5278">loop</text><text fill="#000000" font-family="sans-serif" font-size="11" font-weight="bold" lengthAdjust="spacing" textLength="222.6587" x="101.624" y="396.6714">[Backoff until final status or expiry]</text><g class="message" data-entity-1="part5" data-entity-2="part1" id="msg8"><polygon fill="#C0392B" points="97.8247,418.7266,87.8247,422.7266,97.8247,426.7266,93.8247,422.7266" style="stroke:#C0392B;stroke-width:1;"/><line style="stroke:#C0392B;stroke-width:1;" x1="91.8247" x2="978.6748" y1="422.7266" y2="422.7266"/><text fill="#000000" font-family="sans-serif" font-size="13" lengthAdjust="spacing" textLength="24.7939" x="355.0642" y="417.6606">S08</text><text fill="#000000" font-family="sans-serif" font-size="13" lengthAdjust="spacing" textLength="327.5771" x="383.8582" y="417.6606">inquiryPayment(paymentRequestId or paymentId)</text></g><g class="message" data-entity-1="part1" data-entity-2="part5" id="msg9"><polygon fill="#C0392B" points="967.6748,447.8594,977.6748,451.8594,967.6748,455.8594,971.6748,451.8594" style="stroke:#C0392B;stroke-width:1;"/><line style="stroke:#C0392B;stroke-width:1;stroke-dasharray:2,2;" x1="86.8247" x2="973.6748" y1="451.8594" y2="451.8594"/><text fill="#000000" font-family="sans-serif" font-size="13" lengthAdjust="spacing" textLength="24.7939" x="437.8535" y="446.7935">S09</text><text fill="#000000" font-family="sans-serif" font-size="13" lengthAdjust="spacing" textLength="161.9985" x="466.6475" y="446.7935">paymentResult S, F, or U</text></g><g class="message" data-entity-1="part5" data-entity-2="part3" id="msg10"><polygon fill="#4A5568" points="597.9766,476.9922,587.9766,480.9922,597.9766,484.9922,593.9766,480.9922" style="stroke:#4A5568;stroke-width:1;"/><line style="stroke:#4A5568;stroke-width:1;" x1="591.9766" x2="978.6748" y1="480.9922" y2="480.9922"/><text fill="#000000" font-family="sans-serif" font-size="13" lengthAdjust="spacing" textLength="24.7939" x="684.6794" y="475.9263">S10</text><text fill="#000000" font-family="sans-serif" font-size="13" lengthAdjust="spacing" textLength="168.4985" x="713.4734" y="475.9263">Apply result idempotently</text></g><g class="message" data-entity-1="part3" data-entity-2="part4" id="msg11"><polygon fill="#4A5568" points="853.8105,506.125,863.8105,510.125,853.8105,514.125,857.8105,510.125" style="stroke:#4A5568;stroke-width:1;"/><line style="stroke:#4A5568;stroke-width:1;" x1="586.9766" x2="859.8105" y1="510.125" y2="510.125"/><text fill="#000000" font-family="sans-serif" font-size="13" lengthAdjust="spacing" textLength="24.7939" x="637.7004" y="505.0591">S11</text><text fill="#000000" font-family="sans-serif" font-size="13" lengthAdjust="spacing" textLength="148.5923" x="666.4944" y="505.0591">Update only if not final</text></g><g class="message" data-entity-1="part6" data-entity-2="part3" id="msg12"><polygon fill="#4A5568" points="597.9766,542.2578,587.9766,546.2578,597.9766,550.2578,593.9766,546.2578" style="stroke:#4A5568;stroke-width:1;"/><line style="stroke:#4A5568;stroke-width:1;" x1="591.9766" x2="1159.4297" y1="546.2578" y2="546.2578"/><text fill="#000000" font-family="sans-serif" font-size="13" lengthAdjust="spacing" textLength="24.7939" x="797.1753" y="541.1919">S12</text><text fill="#000000" font-family="sans-serif" font-size="13" lengthAdjust="spacing" textLength="124.2617" x="825.9692" y="541.1919">Query latest status</text></g><g class="message" data-entity-1="part3" data-entity-2="part4" id="msg13"><polygon fill="#4A5568" points="853.8105,571.3906,863.8105,575.3906,853.8105,579.3906,857.8105,575.3906" style="stroke:#4A5568;stroke-width:1;"/><line style="stroke:#4A5568;stroke-width:1;" x1="586.9766" x2="859.8105" y1="575.3906" y2="575.3906"/><text fill="#000000" font-family="sans-serif" font-size="13" lengthAdjust="spacing" textLength="24.7939" x="675.8594" y="570.3247">S13</text><text fill="#000000" font-family="sans-serif" font-size="13" lengthAdjust="spacing" textLength="72.2744" x="704.6533" y="570.3247">Read order</text></g><g class="message" data-entity-1="part3" data-entity-2="part6" id="msg14"><polygon fill="#4A5568" points="1148.4297,600.5234,1158.4297,604.5234,1148.4297,608.5234,1152.4297,604.5234" style="stroke:#4A5568;stroke-width:1;"/><line style="stroke:#4A5568;stroke-width:1;stroke-dasharray:2,2;" x1="586.9766" x2="1154.4297" y1="604.5234" y2="604.5234"/><text fill="#000000" font-family="sans-serif" font-size="13" lengthAdjust="spacing" textLength="24.7939" x="765.0181" y="599.4575">S14</text><text fill="#000000" font-family="sans-serif" font-size="13" lengthAdjust="spacing" textLength="188.5762" x="793.812" y="599.4575">SUCCESS, FAILED, or PAYING</text></g><rect fill="none" height="125.7813" rx="6" ry="6" style="stroke:#000000;stroke-width:1;" width="304.3896" x="950.3638" y="696.8203"/><text fill="#000000" font-family="sans-serif" font-size="14" font-weight="bold" lengthAdjust="spacing" textLength="41.2139" x="960.2378" y="716.8154">Color</text><text fill="#000000" font-family="sans-serif" font-size="14" font-weight="bold" lengthAdjust="spacing" textLength="58.3174" x="1011.1997" y="716.8154">System</text><rect fill="#F4CCCC" height="16.2969" style="stroke:none;stroke-width:1;" width="50.9619" x="955.3638" y="720.1172"/><text fill="#000000" font-family="sans-serif" font-size="14" lengthAdjust="spacing" textLength="4.4502" x="955.3638" y="733.1123">&#160;</text><text fill="#000000" font-family="sans-serif" font-size="14" lengthAdjust="spacing" textLength="119.6494" x="1010.7759" y="733.1123">Alipay+ Backend</text><rect fill="#CFE2FF" height="16.2969" style="stroke:none;stroke-width:1;" width="50.9619" x="955.3638" y="736.4141"/><text fill="#000000" font-family="sans-serif" font-size="14" lengthAdjust="spacing" textLength="4.4502" x="955.3638" y="749.4092">&#160;</text><text fill="#000000" font-family="sans-serif" font-size="14" lengthAdjust="spacing" textLength="148.9893" x="1010.7759" y="749.4092">Your Backend / ACQP</text><rect fill="#D4F1EA" height="16.2969" style="stroke:none;stroke-width:1;" width="50.9619" x="955.3638" y="752.7109"/><text fill="#000000" font-family="sans-serif" font-size="14" lengthAdjust="spacing" textLength="4.4502" x="955.3638" y="765.7061">&#160;</text><text fill="#000000" font-family="sans-serif" font-size="14" lengthAdjust="spacing" textLength="190.6475" x="1010.7759" y="765.7061">Your Mobile App / Frontend</text><rect fill="#F5F5F5" height="16.2969" style="stroke:none;stroke-width:1;" width="50.9619" x="955.3638" y="769.0078"/><text fill="#000000" font-family="sans-serif" font-size="14" lengthAdjust="spacing" textLength="4.4502" x="955.3638" y="782.0029">&#160;</text><text fill="#000000" font-family="sans-serif" font-size="14" lengthAdjust="spacing" textLength="54.7764" x="1010.7759" y="782.0029">Storage</text><line style="stroke:#000000;stroke-width:1;" x1="955.3638" x2="1205.8735" y1="703.8203" y2="703.8203"/><line style="stroke:#000000;stroke-width:1;" x1="955.3638" x2="1205.8735" y1="720.1172" y2="720.1172"/><line style="stroke:#000000;stroke-width:1;" x1="955.3638" x2="1205.8735" y1="736.4141" y2="736.4141"/><line style="stroke:#000000;stroke-width:1;" x1="955.3638" x2="1205.8735" y1="752.7109" y2="752.7109"/><line style="stroke:#000000;stroke-width:1;" x1="955.3638" x2="1205.8735" y1="769.0078" y2="769.0078"/><line style="stroke:#000000;stroke-width:1;" x1="955.3638" x2="1205.8735" y1="785.3047" y2="785.3047"/><line style="stroke:#000000;stroke-width:1;" x1="955.3638" x2="955.3638" y1="703.8203" y2="785.3047"/><line style="stroke:#000000;stroke-width:1;" x1="1006.3257" x2="1006.3257" y1="703.8203" y2="785.3047"/><line style="stroke:#000000;stroke-width:1;" x1="1205.8735" x2="1205.8735" y1="703.8203" y2="785.3047"/><line style="stroke:#000000;stroke-width:1;" x1="950.3638" x2="1254.7534" y1="792.3047" y2="792.3047"/><rect fill="#C0392B" height="16.2969" style="stroke:none;stroke-width:1;" width="4.4502" x="955.3638" y="799.3047"/><text fill="#000000" font-family="sans-serif" font-size="14" lengthAdjust="spacing" textLength="4.4502" x="955.3638" y="812.2998">&#160;</text><text fill="#000000" font-family="sans-serif" font-size="14" lengthAdjust="spacing" textLength="281.0391" x="964.2642" y="812.2998">Red arrows = Alipay+ backend API calls</text><line style="stroke:#000000;stroke-width:1;" x1="955.3638" x2="1249.7534" y1="799.3047" y2="799.3047"/><line style="stroke:#000000;stroke-width:1;" x1="955.3638" x2="1249.7534" y1="815.6016" y2="815.6016"/><line style="stroke:#000000;stroke-width:1;" x1="955.3638" x2="955.3638" y1="799.3047" y2="815.6016"/><line style="stroke:#000000;stroke-width:1;" x1="959.814" x2="959.814" y1="799.3047" y2="815.6016"/><line style="stroke:#000000;stroke-width:1;" x1="1249.7534" x2="1249.7534" y1="799.3047" y2="815.6016"/><?plantuml-src TLHHJzim47xthpZ1oz2eW8uYLWsaD6scI0DA8oQXQGzkScqjN3lO3YnIV_pESTgcQ4iVclW-VtVVTsSxuIJ2bDThL0vcQ2lf_tAjSY45Tq8hwC6zTc8Xyl39LG6fUgs4gPbz4QhaXgzXplENfT6LAc8jjO7tbN3OYTiLB_IxK4jOS6aF8lXQeShn3gtbIuoaM2h8gHmq7LH3dMkZqC15lnE8ZD7l8UVnPJGON5rtWbDkdCX5oPKRQLEWQO63qTNeki-On2MI72EMAySsDn32z9BLrk4QDcppxJYvZEcvtG2LLlBwCun8gz_MHEDaqayIYZxhokn2Pn35ZzE065yc5vDeYxZJSq6MHsL9eCHeqhcbIWR-Hy3CQKDMq6gFdYRB-PUl_H65PbW0zv8jtEmAchTPesaAEPVIqaxw3keOA_SkmD474KV0BUs3LkKXDYOkp-s96s0yWbRm8V31UmiPcZUHOuDyo7R8WZi-vnQtiF6eGOo9AoW-v9fgAGbr1bc-mgAYzmRUBlyp_V-D3LLBuQUxRGHZl79QLUivqHrbv-T7Z941lL-joRzlIUOGb9_vkZqPdnP2SGdMSLVP4qOsz0Bg9vU2z25OcbeA6co33zaGfaRdDDI1QdjyH87hKbDjJjQCN2Bic8XIPT4um3TVwRo6CYIU-SDXNLemJWSp-4Tq4EgfqJ60FSaTDo-WGo-UudYIPVG5IPJ-c8mPqh5h6RWqo8iwi1mmf4kb3K9HbT8NZCqu-H7myzH8szdKeotHT4WJIRBLDY6JMfVDSEd50YhbX8IkURuW_5FwomEsFUrQxnb5k5sstd-qmbEqQsbnGZG7tVDb1TxXtiJcMijE8JdrcvywgKEdQ6Xa3IRW3ZhKDUUfR5gj5M75Oj-7u4qOifRmiK9JWoIuTQtoJhDdv7xeKxFePwdPFTowUDeshIbt6Zsdzz__0W00?></g></svg>